<?xml version="1.0" encoding="utf-8" standalone="no"?>
<!DOCTYPE svg PUBLIC "-//W3C//DTD SVG 1.1//EN"
  "http://www.w3.org/Graphics/SVG/1.1/DTD/svg11.dtd">
<!-- Created with matplotlib (https://matplotlib.org/) -->
<svg height="576pt" version="1.1" viewBox="0 0 360 576" width="360pt" xmlns="http://www.w3.org/2000/svg" xmlns:xlink="http://www.w3.org/1999/xlink">
 <defs>
  <style type="text/css">
*{stroke-linecap:butt;stroke-linejoin:round;}
  </style>
 </defs>
 <g id="figure_1">
  <g id="patch_1">
   <path d="M 0 576 
L 360 576 
L 360 0 
L 0 0 
z
" style="fill:#ffffff;"/>
  </g>
  <g id="axes_1">
   <g id="patch_2">
    <path d="M 45 504 
L 324 504 
L 324 69.12 
L 45 69.12 
z
" style="fill:#ffffff;"/>
   </g>
   <g id="PolyCollection_1">
    <defs>
     <path d="M 57.681818 -141.589601 
L 57.681818 -126.618964 
L 61.64672 -139.669805 
L 65.607431 -131.195077 
L 69.572332 -132.448472 
L 73.533043 -172.905257 
L 77.497945 -126.672468 
L 81.458656 -117.268364 
L 85.423557 -142.94279 
L 89.384268 -165.020711 
L 93.34917 -174.027387 
L 97.314072 -185.783829 
L 101.274782 -237.032943 
L 105.239684 -251.833113 
L 109.200395 -278.670691 
L 113.165297 -293.053648 
L 117.126007 -317.578382 
L 121.090909 -317.904627 
L 125.055811 -332.75359 
L 129.016522 -341.090874 
L 132.981423 -349.635886 
L 136.942134 -352.518262 
L 140.907036 -352.739605 
L 144.867746 -347.195899 
L 148.832648 -342.411629 
L 152.793359 -339.921218 
L 156.758261 -356.414941 
L 160.723163 -357.16883 
L 164.683873 -345.333927 
L 168.648775 -352.054352 
L 172.609486 -344.187879 
L 176.574388 -350.004787 
L 180.535098 -357.095621 
L 184.5 -346.474697 
L 188.464902 -350.542207 
L 192.425612 -345.649368 
L 196.390514 -346.668488 
L 200.351225 -345.564983 
L 204.316127 -333.313742 
L 208.276837 -337.041666 
L 212.241739 -339.831301 
L 216.20245 -345.388522 
L 220.167352 -333.296672 
L 224.132254 -333.031958 
L 228.092964 -340.586821 
L 232.057866 -338.381573 
L 236.018577 -331.052233 
L 239.983478 -324.786364 
L 243.944189 -328.919706 
L 247.909091 -324.763685 
L 251.873993 -320.441042 
L 255.834703 -328.042966 
L 259.799605 -324.339877 
L 263.760316 -330.035038 
L 267.725218 -332.779303 
L 271.685928 -330.525285 
L 275.65083 -339.525724 
L 279.611541 -329.798016 
L 283.576443 -328.493342 
L 287.541344 -333.243031 
L 291.502055 -328.249118 
L 295.466957 -322.24229 
L 299.427668 -325.534601 
L 303.392569 -328.622102 
L 307.35328 -318.967319 
L 311.318182 -329.610229 
L 311.318182 -453.335002 
L 311.318182 -453.335002 
L 307.35328 -442.292215 
L 303.392569 -443.758883 
L 299.427668 -447.85472 
L 295.466957 -448.671489 
L 291.502055 -451.145698 
L 287.541344 -458.256529 
L 283.576443 -452.786783 
L 279.611541 -450.821807 
L 275.65083 -462.36692 
L 271.685928 -461.625287 
L 267.725218 -453.627033 
L 263.760316 -448.046179 
L 259.799605 -450.378576 
L 255.834703 -454.955776 
L 251.873993 -447.230808 
L 247.909091 -454.84415 
L 243.944189 -449.687172 
L 239.983478 -453.117891 
L 236.018577 -462.687137 
L 232.057866 -469.726508 
L 228.092964 -471.90394 
L 224.132254 -458.685215 
L 220.167352 -462.1924 
L 216.20245 -468.857066 
L 212.241739 -477.378663 
L 208.276837 -458.082547 
L 204.316127 -450.931424 
L 200.351225 -458.616648 
L 196.390514 -473.410945 
L 192.425612 -468.844564 
L 188.464902 -486.505261 
L 184.5 -465.806715 
L 180.535098 -476.356799 
L 176.574388 -478.836105 
L 172.609486 -463.858554 
L 168.648775 -469.293265 
L 164.683873 -469.933008 
L 160.723163 -487.112727 
L 156.758261 -474.325437 
L 152.793359 -468.564174 
L 148.832648 -470.752627 
L 144.867746 -470.780449 
L 140.907036 -469.27816 
L 136.942134 -464.915763 
L 132.981423 -454.569235 
L 129.016522 -443.141498 
L 125.055811 -427.508697 
L 121.090909 -397.262477 
L 117.126007 -385.430306 
L 113.165297 -350.811935 
L 109.200395 -337.789259 
L 105.239684 -306.074264 
L 101.274782 -282.936477 
L 97.314072 -230.428132 
L 93.34917 -210.006154 
L 89.384268 -197.915324 
L 85.423557 -170.978759 
L 81.458656 -151.789511 
L 77.497945 -158.948542 
L 73.533043 -223.194506 
L 69.572332 -147.87469 
L 65.607431 -147.315519 
L 61.64672 -155.491347 
L 57.681818 -141.589601 
z
" id="m9b5feefa15" style="stroke:#4cff4c;stroke-opacity:0.2;"/>
    </defs>
    <g clip-path="url(#p4c42db06e9)">
     <use style="fill:#4cff4c;fill-opacity:0.2;stroke:#4cff4c;stroke-opacity:0.2;" x="0" xlink:href="#m9b5feefa15" y="576"/>
    </g>
   </g>
   <g id="PolyCollection_2">
    <defs>
     <path d="M 57.681818 -166.829798 
L 57.681818 -156.54076 
L 61.64672 -152.509672 
L 65.607431 -148.568392 
L 69.572332 -147.785281 
L 73.533043 -120.171772 
L 77.497945 -143.446247 
L 81.458656 -91.767273 
L 85.423557 -126.519147 
L 89.384268 -114.711245 
L 93.34917 -123.549879 
L 97.314072 -151.609517 
L 101.274782 -172.676281 
L 105.239684 -201.549107 
L 109.200395 -207.993986 
L 113.165297 -219.724587 
L 117.126007 -191.205887 
L 121.090909 -228.447912 
L 125.055811 -234.196113 
L 129.016522 -233.416078 
L 132.981423 -231.600038 
L 136.942134 -246.71984 
L 140.907036 -247.034947 
L 144.867746 -236.611554 
L 148.832648 -236.627533 
L 152.793359 -239.355629 
L 156.758261 -232.505301 
L 160.723163 -235.887008 
L 164.683873 -229.01057 
L 168.648775 -229.105979 
L 172.609486 -230.560634 
L 176.574388 -227.464041 
L 180.535098 -217.929971 
L 184.5 -229.218405 
L 188.464902 -220.951605 
L 192.425612 -222.912874 
L 196.390514 -210.851059 
L 200.351225 -209.03396 
L 204.316127 -198.946476 
L 208.276837 -208.892082 
L 212.241739 -203.394357 
L 216.20245 -208.140661 
L 220.167352 -197.534247 
L 224.132254 -203.952762 
L 228.092964 -197.208902 
L 232.057866 -200.074359 
L 236.018577 -186.668244 
L 239.983478 -178.831294 
L 243.944189 -185.666304 
L 247.909091 -175.693477 
L 251.873993 -176.876017 
L 255.834703 -175.074379 
L 259.799605 -168.060379 
L 263.760316 -171.396685 
L 267.725218 -168.786997 
L 271.685928 -179.370351 
L 275.65083 -171.836072 
L 279.611541 -169.919145 
L 283.576443 -168.453079 
L 287.541344 -166.97151 
L 291.502055 -166.994839 
L 295.466957 -171.258812 
L 299.427668 -166.992741 
L 303.392569 -164.051659 
L 307.35328 -157.284246 
L 311.318182 -163.062932 
L 311.318182 -246.032297 
L 311.318182 -246.032297 
L 307.35328 -237.222365 
L 303.392569 -247.473494 
L 299.427668 -248.107703 
L 295.466957 -253.722677 
L 291.502055 -250.844415 
L 287.541344 -246.536333 
L 283.576443 -247.343647 
L 279.611541 -253.280696 
L 275.65083 -251.976966 
L 271.685928 -260.658481 
L 267.725218 -249.871016 
L 263.760316 -251.370572 
L 259.799605 -250.003869 
L 255.834703 -255.696083 
L 251.873993 -260.191941 
L 247.909091 -258.069145 
L 243.944189 -268.880943 
L 239.983478 -259.635136 
L 236.018577 -269.913811 
L 232.057866 -281.715083 
L 228.092964 -280.38558 
L 224.132254 -286.873962 
L 220.167352 -281.105503 
L 216.20245 -291.885553 
L 212.241739 -288.694117 
L 208.276837 -293.11382 
L 204.316127 -277.684055 
L 200.351225 -290.949084 
L 196.390514 -296.356762 
L 192.425612 -306.386451 
L 188.464902 -304.442172 
L 184.5 -312.927719 
L 180.535098 -299.689476 
L 176.574388 -316.104217 
L 172.609486 -315.643797 
L 168.648775 -314.796479 
L 164.683873 -313.640523 
L 160.723163 -318.821908 
L 156.758261 -317.578178 
L 152.793359 -323.030019 
L 148.832648 -318.605025 
L 144.867746 -320.696688 
L 140.907036 -326.18674 
L 136.942134 -329.444931 
L 132.981423 -311.826139 
L 129.016522 -309.61378 
L 125.055811 -311.614 
L 121.090909 -297.460906 
L 117.126007 -274.890512 
L 113.165297 -279.568851 
L 109.200395 -260.852292 
L 105.239684 -244.203443 
L 101.274782 -212.935282 
L 97.314072 -193.930575 
L 93.34917 -167.767958 
L 89.384268 -155.619348 
L 85.423557 -146.381744 
L 81.458656 -133.892629 
L 77.497945 -159.875739 
L 73.533043 -143.451915 
L 69.572332 -159.684386 
L 65.607431 -159.190147 
L 61.64672 -163.571116 
L 57.681818 -166.829798 
z
" id="m0788bead8f" style="stroke:#ff66ff;stroke-opacity:0.2;"/>
    </defs>
    <g clip-path="url(#p4c42db06e9)">
     <use style="fill:#ff66ff;fill-opacity:0.2;stroke:#ff66ff;stroke-opacity:0.2;" x="0" xlink:href="#m0788bead8f" y="576"/>
    </g>
   </g>
   <g id="PolyCollection_3">
    <defs>
     <path d="M 57.681818 -153.372249 
L 57.681818 -148.973451 
L 61.64672 -149.244407 
L 65.607431 -156.53507 
L 69.572332 -149.186299 
L 73.533043 -143.352175 
L 77.497945 -150.920875 
L 81.458656 -148.552656 
L 85.423557 -151.120062 
L 89.384268 -147.443568 
L 93.34917 -151.741434 
L 97.314072 -151.521975 
L 101.274782 -155.865904 
L 105.239684 -153.471183 
L 109.200395 -153.053934 
L 113.165297 -152.725181 
L 117.126007 -150.968199 
L 121.090909 -154.651089 
L 125.055811 -155.05187 
L 129.016522 -152.351688 
L 132.981423 -153.034114 
L 136.942134 -156.66451 
L 140.907036 -157.316931 
L 144.867746 -155.811448 
L 148.832648 -155.128616 
L 152.793359 -154.107354 
L 156.758261 -155.235605 
L 160.723163 -157.358429 
L 164.683873 -151.110711 
L 168.648775 -155.192785 
L 172.609486 -153.675354 
L 176.574388 -150.742232 
L 180.535098 -150.583816 
L 184.5 -152.59369 
L 188.464902 -150.097327 
L 192.425612 -150.730153 
L 196.390514 -159.306174 
L 200.351225 -149.9088 
L 204.316127 -152.987151 
L 208.276837 -152.117158 
L 212.241739 -156.329727 
L 216.20245 -152.210723 
L 220.167352 -154.602066 
L 224.132254 -155.352539 
L 228.092964 -152.608782 
L 232.057866 -152.092485 
L 236.018577 -145.820194 
L 239.983478 -149.590671 
L 243.944189 -154.564228 
L 247.909091 -150.56321 
L 251.873993 -149.663551 
L 255.834703 -151.326259 
L 259.799605 -148.955872 
L 263.760316 -148.234975 
L 267.725218 -151.557265 
L 271.685928 -146.348985 
L 275.65083 -147.974442 
L 279.611541 -147.641079 
L 283.576443 -142.465379 
L 287.541344 -146.706589 
L 291.502055 -147.067812 
L 295.466957 -142.230155 
L 299.427668 -148.292823 
L 303.392569 -140.809785 
L 307.35328 -147.985606 
L 311.318182 -145.793387 
L 311.318182 -158.24356 
L 311.318182 -158.24356 
L 307.35328 -161.153145 
L 303.392569 -155.300447 
L 299.427668 -161.081485 
L 295.466957 -154.58398 
L 291.502055 -159.811115 
L 287.541344 -159.549573 
L 283.576443 -155.154269 
L 279.611541 -160.65598 
L 275.65083 -161.011481 
L 271.685928 -158.723825 
L 267.725218 -163.679053 
L 263.760316 -160.582448 
L 259.799605 -161.214899 
L 255.834703 -163.854748 
L 251.873993 -161.851276 
L 247.909091 -162.619332 
L 243.944189 -167.233018 
L 239.983478 -161.894824 
L 236.018577 -158.512612 
L 232.057866 -165.073548 
L 228.092964 -165.207526 
L 224.132254 -167.91611 
L 220.167352 -166.7128 
L 216.20245 -165.149815 
L 212.241739 -169.500503 
L 208.276837 -166.195815 
L 204.316127 -165.583097 
L 200.351225 -162.302905 
L 196.390514 -171.796334 
L 192.425612 -162.835955 
L 188.464902 -162.41714 
L 184.5 -164.365271 
L 180.535098 -163.15073 
L 176.574388 -163.145317 
L 172.609486 -165.142712 
L 168.648775 -166.932602 
L 164.683873 -162.983964 
L 160.723163 -168.849224 
L 156.758261 -166.579732 
L 152.793359 -164.94892 
L 148.832648 -166.281173 
L 144.867746 -166.842423 
L 140.907036 -168.360638 
L 136.942134 -167.021061 
L 132.981423 -165.202726 
L 129.016522 -163.28083 
L 125.055811 -165.892619 
L 121.090909 -165.363994 
L 117.126007 -161.189086 
L 113.165297 -162.237843 
L 109.200395 -162.99333 
L 105.239684 -163.153658 
L 101.274782 -164.479351 
L 97.314072 -159.391342 
L 93.34917 -159.044064 
L 89.384268 -153.693893 
L 85.423557 -157.910338 
L 81.458656 -154.200895 
L 77.497945 -156.068211 
L 73.533043 -149.400898 
L 69.572332 -153.114041 
L 65.607431 -161.356209 
L 61.64672 -153.768439 
L 57.681818 -153.372249 
z
" id="m8792fcdc43" style="stroke:#6666ff;stroke-opacity:0.2;"/>
    </defs>
    <g clip-path="url(#p4c42db06e9)">
     <use style="fill:#6666ff;fill-opacity:0.2;stroke:#6666ff;stroke-opacity:0.2;" x="0" xlink:href="#m8792fcdc43" y="576"/>
    </g>
   </g>
   <g id="matplotlib.axis_1">
    <g id="xtick_1">
     <g id="line2d_1">
      <defs>
       <path d="M 0 0 
L 0 3.5 
" id="m4c96c430b9" style="stroke:#000000;stroke-width:0.8;"/>
      </defs>
      <g>
       <use style="stroke:#000000;stroke-width:0.8;" x="57.681818" xlink:href="#m4c96c430b9" y="504"/>
      </g>
     </g>
     <g id="text_1">
      <!-- 0 -->
      <defs>
       <path d="M 31.78125 66.40625 
Q 24.171875 66.40625 20.328125 58.90625 
Q 16.5 51.421875 16.5 36.375 
Q 16.5 21.390625 20.328125 13.890625 
Q 24.171875 6.390625 31.78125 6.390625 
Q 39.453125 6.390625 43.28125 13.890625 
Q 47.125 21.390625 47.125 36.375 
Q 47.125 51.421875 43.28125 58.90625 
Q 39.453125 66.40625 31.78125 66.40625 
z
M 31.78125 74.21875 
Q 44.046875 74.21875 50.515625 64.515625 
Q 56.984375 54.828125 56.984375 36.375 
Q 56.984375 17.96875 50.515625 8.265625 
Q 44.046875 -1.421875 31.78125 -1.421875 
Q 19.53125 -1.421875 13.0625 8.265625 
Q 6.59375 17.96875 6.59375 36.375 
Q 6.59375 54.828125 13.0625 64.515625 
Q 19.53125 74.21875 31.78125 74.21875 
z
" id="DejaVuSans-48"/>
      </defs>
      <g transform="translate(51.955568 524.677187)scale(0.18 -0.18)">
       <use xlink:href="#DejaVuSans-48"/>
      </g>
     </g>
    </g>
    <g id="xtick_2">
     <g id="line2d_2">
      <g>
       <use style="stroke:#000000;stroke-width:0.8;" x="99.5941" xlink:href="#m4c96c430b9" y="504"/>
      </g>
     </g>
     <g id="text_2">
      <!-- 10 -->
      <defs>
       <path d="M 12.40625 8.296875 
L 28.515625 8.296875 
L 28.515625 63.921875 
L 10.984375 60.40625 
L 10.984375 69.390625 
L 28.421875 72.90625 
L 38.28125 72.90625 
L 38.28125 8.296875 
L 54.390625 8.296875 
L 54.390625 0 
L 12.40625 0 
z
" id="DejaVuSans-49"/>
      </defs>
      <g transform="translate(88.1416 524.677187)scale(0.18 -0.18)">
       <use xlink:href="#DejaVuSans-49"/>
       <use x="63.623047" xlink:href="#DejaVuSans-48"/>
      </g>
     </g>
    </g>
    <g id="xtick_3">
     <g id="line2d_3">
      <g>
       <use style="stroke:#000000;stroke-width:0.8;" x="141.506381" xlink:href="#m4c96c430b9" y="504"/>
      </g>
     </g>
     <g id="text_3">
      <!-- 20 -->
      <defs>
       <path d="M 19.1875 8.296875 
L 53.609375 8.296875 
L 53.609375 0 
L 7.328125 0 
L 7.328125 8.296875 
Q 12.9375 14.109375 22.625 23.890625 
Q 32.328125 33.6875 34.8125 36.53125 
Q 39.546875 41.84375 41.421875 45.53125 
Q 43.3125 49.21875 43.3125 52.78125 
Q 43.3125 58.59375 39.234375 62.25 
Q 35.15625 65.921875 28.609375 65.921875 
Q 23.96875 65.921875 18.8125 64.3125 
Q 13.671875 62.703125 7.8125 59.421875 
L 7.8125 69.390625 
Q 13.765625 71.78125 18.9375 73 
Q 24.125 74.21875 28.421875 74.21875 
Q 39.75 74.21875 46.484375 68.546875 
Q 53.21875 62.890625 53.21875 53.421875 
Q 53.21875 48.921875 51.53125 44.890625 
Q 49.859375 40.875 45.40625 35.40625 
Q 44.1875 33.984375 37.640625 27.21875 
Q 31.109375 20.453125 19.1875 8.296875 
z
" id="DejaVuSans-50"/>
      </defs>
      <g transform="translate(130.053881 524.677187)scale(0.18 -0.18)">
       <use xlink:href="#DejaVuSans-50"/>
       <use x="63.623047" xlink:href="#DejaVuSans-48"/>
      </g>
     </g>
    </g>
    <g id="xtick_4">
     <g id="line2d_4">
      <g>
       <use style="stroke:#000000;stroke-width:0.8;" x="183.418663" xlink:href="#m4c96c430b9" y="504"/>
      </g>
     </g>
     <g id="text_4">
      <!-- 30 -->
      <defs>
       <path d="M 40.578125 39.3125 
Q 47.65625 37.796875 51.625 33 
Q 55.609375 28.21875 55.609375 21.1875 
Q 55.609375 10.40625 48.1875 4.484375 
Q 40.765625 -1.421875 27.09375 -1.421875 
Q 22.515625 -1.421875 17.65625 -0.515625 
Q 12.796875 0.390625 7.625 2.203125 
L 7.625 11.71875 
Q 11.71875 9.328125 16.59375 8.109375 
Q 21.484375 6.890625 26.8125 6.890625 
Q 36.078125 6.890625 40.9375 10.546875 
Q 45.796875 14.203125 45.796875 21.1875 
Q 45.796875 27.640625 41.28125 31.265625 
Q 36.765625 34.90625 28.71875 34.90625 
L 20.21875 34.90625 
L 20.21875 43.015625 
L 29.109375 43.015625 
Q 36.375 43.015625 40.234375 45.921875 
Q 44.09375 48.828125 44.09375 54.296875 
Q 44.09375 59.90625 40.109375 62.90625 
Q 36.140625 65.921875 28.71875 65.921875 
Q 24.65625 65.921875 20.015625 65.03125 
Q 15.375 64.15625 9.8125 62.3125 
L 9.8125 71.09375 
Q 15.4375 72.65625 20.34375 73.4375 
Q 25.25 74.21875 29.59375 74.21875 
Q 40.828125 74.21875 47.359375 69.109375 
Q 53.90625 64.015625 53.90625 55.328125 
Q 53.90625 49.265625 50.4375 45.09375 
Q 46.96875 40.921875 40.578125 39.3125 
z
" id="DejaVuSans-51"/>
      </defs>
      <g transform="translate(171.966163 524.677187)scale(0.18 -0.18)">
       <use xlink:href="#DejaVuSans-51"/>
       <use x="63.623047" xlink:href="#DejaVuSans-48"/>
      </g>
     </g>
    </g>
    <g id="xtick_5">
     <g id="line2d_5">
      <g>
       <use style="stroke:#000000;stroke-width:0.8;" x="225.330945" xlink:href="#m4c96c430b9" y="504"/>
      </g>
     </g>
     <g id="text_5">
      <!-- 40 -->
      <defs>
       <path d="M 37.796875 64.3125 
L 12.890625 25.390625 
L 37.796875 25.390625 
z
M 35.203125 72.90625 
L 47.609375 72.90625 
L 47.609375 25.390625 
L 58.015625 25.390625 
L 58.015625 17.1875 
L 47.609375 17.1875 
L 47.609375 0 
L 37.796875 0 
L 37.796875 17.1875 
L 4.890625 17.1875 
L 4.890625 26.703125 
z
" id="DejaVuSans-52"/>
      </defs>
      <g transform="translate(213.878445 524.677187)scale(0.18 -0.18)">
       <use xlink:href="#DejaVuSans-52"/>
       <use x="63.623047" xlink:href="#DejaVuSans-48"/>
      </g>
     </g>
    </g>
    <g id="xtick_6">
     <g id="line2d_6">
      <g>
       <use style="stroke:#000000;stroke-width:0.8;" x="267.243226" xlink:href="#m4c96c430b9" y="504"/>
      </g>
     </g>
     <g id="text_6">
      <!-- 50 -->
      <defs>
       <path d="M 10.796875 72.90625 
L 49.515625 72.90625 
L 49.515625 64.59375 
L 19.828125 64.59375 
L 19.828125 46.734375 
Q 21.96875 47.46875 24.109375 47.828125 
Q 26.265625 48.1875 28.421875 48.1875 
Q 40.625 48.1875 47.75 41.5 
Q 54.890625 34.8125 54.890625 23.390625 
Q 54.890625 11.625 47.5625 5.09375 
Q 40.234375 -1.421875 26.90625 -1.421875 
Q 22.3125 -1.421875 17.546875 -0.640625 
Q 12.796875 0.140625 7.71875 1.703125 
L 7.71875 11.625 
Q 12.109375 9.234375 16.796875 8.0625 
Q 21.484375 6.890625 26.703125 6.890625 
Q 35.15625 6.890625 40.078125 11.328125 
Q 45.015625 15.765625 45.015625 23.390625 
Q 45.015625 31 40.078125 35.4375 
Q 35.15625 39.890625 26.703125 39.890625 
Q 22.75 39.890625 18.8125 39.015625 
Q 14.890625 38.140625 10.796875 36.28125 
z
" id="DejaVuSans-53"/>
      </defs>
      <g transform="translate(255.790726 524.677187)scale(0.18 -0.18)">
       <use xlink:href="#DejaVuSans-53"/>
       <use x="63.623047" xlink:href="#DejaVuSans-48"/>
      </g>
     </g>
    </g>
    <g id="xtick_7">
     <g id="line2d_7">
      <g>
       <use style="stroke:#000000;stroke-width:0.8;" x="309.155508" xlink:href="#m4c96c430b9" y="504"/>
      </g>
     </g>
     <g id="text_7">
      <!-- 60 -->
      <defs>
       <path d="M 33.015625 40.375 
Q 26.375 40.375 22.484375 35.828125 
Q 18.609375 31.296875 18.609375 23.390625 
Q 18.609375 15.53125 22.484375 10.953125 
Q 26.375 6.390625 33.015625 6.390625 
Q 39.65625 6.390625 43.53125 10.953125 
Q 47.40625 15.53125 47.40625 23.390625 
Q 47.40625 31.296875 43.53125 35.828125 
Q 39.65625 40.375 33.015625 40.375 
z
M 52.59375 71.296875 
L 52.59375 62.3125 
Q 48.875 64.0625 45.09375 64.984375 
Q 41.3125 65.921875 37.59375 65.921875 
Q 27.828125 65.921875 22.671875 59.328125 
Q 17.53125 52.734375 16.796875 39.40625 
Q 19.671875 43.65625 24.015625 45.921875 
Q 28.375 48.1875 33.59375 48.1875 
Q 44.578125 48.1875 50.953125 41.515625 
Q 57.328125 34.859375 57.328125 23.390625 
Q 57.328125 12.15625 50.6875 5.359375 
Q 44.046875 -1.421875 33.015625 -1.421875 
Q 20.359375 -1.421875 13.671875 8.265625 
Q 6.984375 17.96875 6.984375 36.375 
Q 6.984375 53.65625 15.1875 63.9375 
Q 23.390625 74.21875 37.203125 74.21875 
Q 40.921875 74.21875 44.703125 73.484375 
Q 48.484375 72.75 52.59375 71.296875 
z
" id="DejaVuSans-54"/>
      </defs>
      <g transform="translate(297.703008 524.677187)scale(0.18 -0.18)">
       <use xlink:href="#DejaVuSans-54"/>
       <use x="63.623047" xlink:href="#DejaVuSans-48"/>
      </g>
     </g>
    </g>
    <g id="text_8">
     <!-- time (s) -->
     <defs>
      <path d="M 18.3125 70.21875 
L 18.3125 54.6875 
L 36.8125 54.6875 
L 36.8125 47.703125 
L 18.3125 47.703125 
L 18.3125 18.015625 
Q 18.3125 11.328125 20.140625 9.421875 
Q 21.96875 7.515625 27.59375 7.515625 
L 36.8125 7.515625 
L 36.8125 0 
L 27.59375 0 
Q 17.1875 0 13.234375 3.875 
Q 9.28125 7.765625 9.28125 18.015625 
L 9.28125 47.703125 
L 2.6875 47.703125 
L 2.6875 54.6875 
L 9.28125 54.6875 
L 9.28125 70.21875 
z
" id="DejaVuSans-116"/>
      <path d="M 9.421875 54.6875 
L 18.40625 54.6875 
L 18.40625 0 
L 9.421875 0 
z
M 9.421875 75.984375 
L 18.40625 75.984375 
L 18.40625 64.59375 
L 9.421875 64.59375 
z
" id="DejaVuSans-105"/>
      <path d="M 52 44.1875 
Q 55.375 50.25 60.0625 53.125 
Q 64.75 56 71.09375 56 
Q 79.640625 56 84.28125 50.015625 
Q 88.921875 44.046875 88.921875 33.015625 
L 88.921875 0 
L 79.890625 0 
L 79.890625 32.71875 
Q 79.890625 40.578125 77.09375 44.375 
Q 74.3125 48.1875 68.609375 48.1875 
Q 61.625 48.1875 57.5625 43.546875 
Q 53.515625 38.921875 53.515625 30.90625 
L 53.515625 0 
L 44.484375 0 
L 44.484375 32.71875 
Q 44.484375 40.625 41.703125 44.40625 
Q 38.921875 48.1875 33.109375 48.1875 
Q 26.21875 48.1875 22.15625 43.53125 
Q 18.109375 38.875 18.109375 30.90625 
L 18.109375 0 
L 9.078125 0 
L 9.078125 54.6875 
L 18.109375 54.6875 
L 18.109375 46.1875 
Q 21.1875 51.21875 25.484375 53.609375 
Q 29.78125 56 35.6875 56 
Q 41.65625 56 45.828125 52.96875 
Q 50 49.953125 52 44.1875 
z
" id="DejaVuSans-109"/>
      <path d="M 56.203125 29.59375 
L 56.203125 25.203125 
L 14.890625 25.203125 
Q 15.484375 15.921875 20.484375 11.0625 
Q 25.484375 6.203125 34.421875 6.203125 
Q 39.59375 6.203125 44.453125 7.46875 
Q 49.3125 8.734375 54.109375 11.28125 
L 54.109375 2.78125 
Q 49.265625 0.734375 44.1875 -0.34375 
Q 39.109375 -1.421875 33.890625 -1.421875 
Q 20.796875 -1.421875 13.15625 6.1875 
Q 5.515625 13.8125 5.515625 26.8125 
Q 5.515625 40.234375 12.765625 48.109375 
Q 20.015625 56 32.328125 56 
Q 43.359375 56 49.78125 48.890625 
Q 56.203125 41.796875 56.203125 29.59375 
z
M 47.21875 32.234375 
Q 47.125 39.59375 43.09375 43.984375 
Q 39.0625 48.390625 32.421875 48.390625 
Q 24.90625 48.390625 20.390625 44.140625 
Q 15.875 39.890625 15.1875 32.171875 
z
" id="DejaVuSans-101"/>
      <path id="DejaVuSans-32"/>
      <path d="M 31 75.875 
Q 24.46875 64.65625 21.28125 53.65625 
Q 18.109375 42.671875 18.109375 31.390625 
Q 18.109375 20.125 21.3125 9.0625 
Q 24.515625 -2 31 -13.1875 
L 23.1875 -13.1875 
Q 15.875 -1.703125 12.234375 9.375 
Q 8.59375 20.453125 8.59375 31.390625 
Q 8.59375 42.28125 12.203125 53.3125 
Q 15.828125 64.359375 23.1875 75.875 
z
" id="DejaVuSans-40"/>
      <path d="M 44.28125 53.078125 
L 44.28125 44.578125 
Q 40.484375 46.53125 36.375 47.5 
Q 32.28125 48.484375 27.875 48.484375 
Q 21.1875 48.484375 17.84375 46.4375 
Q 14.5 44.390625 14.5 40.28125 
Q 14.5 37.15625 16.890625 35.375 
Q 19.28125 33.59375 26.515625 31.984375 
L 29.59375 31.296875 
Q 39.15625 29.25 43.1875 25.515625 
Q 47.21875 21.78125 47.21875 15.09375 
Q 47.21875 7.46875 41.1875 3.015625 
Q 35.15625 -1.421875 24.609375 -1.421875 
Q 20.21875 -1.421875 15.453125 -0.5625 
Q 10.6875 0.296875 5.421875 2 
L 5.421875 11.28125 
Q 10.40625 8.6875 15.234375 7.390625 
Q 20.0625 6.109375 24.8125 6.109375 
Q 31.15625 6.109375 34.5625 8.28125 
Q 37.984375 10.453125 37.984375 14.40625 
Q 37.984375 18.0625 35.515625 20.015625 
Q 33.0625 21.96875 24.703125 23.78125 
L 21.578125 24.515625 
Q 13.234375 26.265625 9.515625 29.90625 
Q 5.8125 33.546875 5.8125 39.890625 
Q 5.8125 47.609375 11.28125 51.796875 
Q 16.75 56 26.8125 56 
Q 31.78125 56 36.171875 55.265625 
Q 40.578125 54.546875 44.28125 53.078125 
z
" id="DejaVuSans-115"/>
      <path d="M 8.015625 75.875 
L 15.828125 75.875 
Q 23.140625 64.359375 26.78125 53.3125 
Q 30.421875 42.28125 30.421875 31.390625 
Q 30.421875 20.453125 26.78125 9.375 
Q 23.140625 -1.703125 15.828125 -13.1875 
L 8.015625 -13.1875 
Q 14.5 -2 17.703125 9.0625 
Q 20.90625 20.125 20.90625 31.390625 
Q 20.90625 42.671875 17.703125 53.65625 
Q 14.5 64.65625 8.015625 75.875 
z
" id="DejaVuSans-41"/>
     </defs>
     <g transform="translate(137.960625 550.656875)scale(0.24 -0.24)">
      <use xlink:href="#DejaVuSans-116"/>
      <use x="39.208984" xlink:href="#DejaVuSans-105"/>
      <use x="66.992188" xlink:href="#DejaVuSans-109"/>
      <use x="164.404297" xlink:href="#DejaVuSans-101"/>
      <use x="225.927734" xlink:href="#DejaVuSans-32"/>
      <use x="257.714844" xlink:href="#DejaVuSans-40"/>
      <use x="296.728516" xlink:href="#DejaVuSans-115"/>
      <use x="348.828125" xlink:href="#DejaVuSans-41"/>
     </g>
    </g>
   </g>
   <g id="matplotlib.axis_2">
    <g id="ytick_1">
     <g id="line2d_8">
      <defs>
       <path d="M 0 0 
L -3.5 0 
" id="m8c0870cb81" style="stroke:#000000;stroke-width:0.8;"/>
      </defs>
      <g>
       <use style="stroke:#000000;stroke-width:0.8;" x="45" xlink:href="#m8c0870cb81" y="424.169676"/>
      </g>
     </g>
     <g id="text_9">
      <!-- 0.00 -->
      <defs>
       <path d="M 10.6875 12.40625 
L 21 12.40625 
L 21 0 
L 10.6875 0 
z
" id="DejaVuSans-46"/>
      </defs>
      <g transform="translate(-2.078125 431.00827)scale(0.18 -0.18)">
       <use xlink:href="#DejaVuSans-48"/>
       <use x="63.623047" xlink:href="#DejaVuSans-46"/>
       <use x="95.410156" xlink:href="#DejaVuSans-48"/>
       <use x="159.033203" xlink:href="#DejaVuSans-48"/>
      </g>
     </g>
    </g>
    <g id="ytick_2">
     <g id="line2d_9">
      <g>
       <use style="stroke:#000000;stroke-width:0.8;" x="45" xlink:href="#m8c0870cb81" y="339.254419"/>
      </g>
     </g>
     <g id="text_10">
      <!-- 0.02 -->
      <g transform="translate(-2.078125 346.093013)scale(0.18 -0.18)">
       <use xlink:href="#DejaVuSans-48"/>
       <use x="63.623047" xlink:href="#DejaVuSans-46"/>
       <use x="95.410156" xlink:href="#DejaVuSans-48"/>
       <use x="159.033203" xlink:href="#DejaVuSans-50"/>
      </g>
     </g>
    </g>
    <g id="ytick_3">
     <g id="line2d_10">
      <g>
       <use style="stroke:#000000;stroke-width:0.8;" x="45" xlink:href="#m8c0870cb81" y="254.339161"/>
      </g>
     </g>
     <g id="text_11">
      <!-- 0.04 -->
      <g transform="translate(-2.078125 261.177755)scale(0.18 -0.18)">
       <use xlink:href="#DejaVuSans-48"/>
       <use x="63.623047" xlink:href="#DejaVuSans-46"/>
       <use x="95.410156" xlink:href="#DejaVuSans-48"/>
       <use x="159.033203" xlink:href="#DejaVuSans-52"/>
      </g>
     </g>
    </g>
    <g id="ytick_4">
     <g id="line2d_11">
      <g>
       <use style="stroke:#000000;stroke-width:0.8;" x="45" xlink:href="#m8c0870cb81" y="169.423904"/>
      </g>
     </g>
     <g id="text_12">
      <!-- 0.06 -->
      <g transform="translate(-2.078125 176.262498)scale(0.18 -0.18)">
       <use xlink:href="#DejaVuSans-48"/>
       <use x="63.623047" xlink:href="#DejaVuSans-46"/>
       <use x="95.410156" xlink:href="#DejaVuSans-48"/>
       <use x="159.033203" xlink:href="#DejaVuSans-54"/>
      </g>
     </g>
    </g>
    <g id="ytick_5">
     <g id="line2d_12">
      <g>
       <use style="stroke:#000000;stroke-width:0.8;" x="45" xlink:href="#m8c0870cb81" y="84.508646"/>
      </g>
     </g>
     <g id="text_13">
      <!-- 0.08 -->
      <defs>
       <path d="M 31.78125 34.625 
Q 24.75 34.625 20.71875 30.859375 
Q 16.703125 27.09375 16.703125 20.515625 
Q 16.703125 13.921875 20.71875 10.15625 
Q 24.75 6.390625 31.78125 6.390625 
Q 38.8125 6.390625 42.859375 10.171875 
Q 46.921875 13.96875 46.921875 20.515625 
Q 46.921875 27.09375 42.890625 30.859375 
Q 38.875 34.625 31.78125 34.625 
z
M 21.921875 38.8125 
Q 15.578125 40.375 12.03125 44.71875 
Q 8.5 49.078125 8.5 55.328125 
Q 8.5 64.0625 14.71875 69.140625 
Q 20.953125 74.21875 31.78125 74.21875 
Q 42.671875 74.21875 48.875 69.140625 
Q 55.078125 64.0625 55.078125 55.328125 
Q 55.078125 49.078125 51.53125 44.71875 
Q 48 40.375 41.703125 38.8125 
Q 48.828125 37.15625 52.796875 32.3125 
Q 56.78125 27.484375 56.78125 20.515625 
Q 56.78125 9.90625 50.3125 4.234375 
Q 43.84375 -1.421875 31.78125 -1.421875 
Q 19.734375 -1.421875 13.25 4.234375 
Q 6.78125 9.90625 6.78125 20.515625 
Q 6.78125 27.484375 10.78125 32.3125 
Q 14.796875 37.15625 21.921875 38.8125 
z
M 18.3125 54.390625 
Q 18.3125 48.734375 21.84375 45.5625 
Q 25.390625 42.390625 31.78125 42.390625 
Q 38.140625 42.390625 41.71875 45.5625 
Q 45.3125 48.734375 45.3125 54.390625 
Q 45.3125 60.0625 41.71875 63.234375 
Q 38.140625 66.40625 31.78125 66.40625 
Q 25.390625 66.40625 21.84375 63.234375 
Q 18.3125 60.0625 18.3125 54.390625 
z
" id="DejaVuSans-56"/>
      </defs>
      <g transform="translate(-2.078125 91.34724)scale(0.18 -0.18)">
       <use xlink:href="#DejaVuSans-48"/>
       <use x="63.623047" xlink:href="#DejaVuSans-46"/>
       <use x="95.410156" xlink:href="#DejaVuSans-48"/>
       <use x="159.033203" xlink:href="#DejaVuSans-56"/>
      </g>
     </g>
    </g>
    <g id="text_14">
     <!-- dF/F -->
     <defs>
      <path d="M 45.40625 46.390625 
L 45.40625 75.984375 
L 54.390625 75.984375 
L 54.390625 0 
L 45.40625 0 
L 45.40625 8.203125 
Q 42.578125 3.328125 38.25 0.953125 
Q 33.9375 -1.421875 27.875 -1.421875 
Q 17.96875 -1.421875 11.734375 6.484375 
Q 5.515625 14.40625 5.515625 27.296875 
Q 5.515625 40.1875 11.734375 48.09375 
Q 17.96875 56 27.875 56 
Q 33.9375 56 38.25 53.625 
Q 42.578125 51.265625 45.40625 46.390625 
z
M 14.796875 27.296875 
Q 14.796875 17.390625 18.875 11.75 
Q 22.953125 6.109375 30.078125 6.109375 
Q 37.203125 6.109375 41.296875 11.75 
Q 45.40625 17.390625 45.40625 27.296875 
Q 45.40625 37.203125 41.296875 42.84375 
Q 37.203125 48.484375 30.078125 48.484375 
Q 22.953125 48.484375 18.875 42.84375 
Q 14.796875 37.203125 14.796875 27.296875 
z
" id="DejaVuSans-100"/>
      <path d="M 9.8125 72.90625 
L 51.703125 72.90625 
L 51.703125 64.59375 
L 19.671875 64.59375 
L 19.671875 43.109375 
L 48.578125 43.109375 
L 48.578125 34.8125 
L 19.671875 34.8125 
L 19.671875 0 
L 9.8125 0 
z
" id="DejaVuSans-70"/>
      <path d="M 25.390625 72.90625 
L 33.6875 72.90625 
L 8.296875 -9.28125 
L 0 -9.28125 
z
" id="DejaVuSans-47"/>
     </defs>
     <g transform="translate(-11.069375 312.024375)rotate(-90)scale(0.24 -0.24)">
      <use xlink:href="#DejaVuSans-100"/>
      <use x="63.476562" xlink:href="#DejaVuSans-70"/>
      <use x="120.996094" xlink:href="#DejaVuSans-47"/>
      <use x="154.6875" xlink:href="#DejaVuSans-70"/>
     </g>
    </g>
   </g>
   <g id="line2d_13">
    <path clip-path="url(#p4c42db06e9)" d="M 57.681818 441.895718 
L 61.64672 428.419424 
L 65.607431 436.744702 
L 69.572332 435.838419 
L 73.533043 377.950119 
L 77.497945 433.189495 
L 81.458656 441.471062 
L 85.423557 419.039226 
L 89.384268 394.531982 
L 93.34917 383.98323 
L 97.314072 367.894019 
L 101.274782 316.01529 
L 105.239684 297.046312 
L 109.200395 267.770025 
L 113.165297 254.067209 
L 117.126007 224.495656 
L 121.090909 218.416448 
L 125.055811 195.868856 
L 129.016522 183.883814 
L 132.981423 173.897439 
L 136.942134 167.282988 
L 140.907036 164.991118 
L 144.867746 167.011826 
L 148.832648 169.417872 
L 152.793359 171.757304 
L 156.758261 160.629811 
L 160.723163 153.859222 
L 164.683873 168.366533 
L 168.648775 165.326191 
L 172.609486 171.976784 
L 176.574388 161.579554 
L 180.535098 159.27379 
L 184.5 169.859294 
L 188.464902 157.476266 
L 192.425612 168.753034 
L 196.390514 165.960284 
L 200.351225 173.909184 
L 204.316127 183.877417 
L 208.276837 178.437894 
L 212.241739 167.395018 
L 216.20245 168.877206 
L 220.167352 178.255464 
L 224.132254 180.141414 
L 228.092964 169.754619 
L 232.057866 171.945959 
L 236.018577 179.130315 
L 239.983478 187.047873 
L 243.944189 186.696561 
L 247.909091 186.196083 
L 251.873993 192.164075 
L 255.834703 184.500629 
L 259.799605 188.640773 
L 263.760316 186.959392 
L 267.725218 182.796832 
L 271.685928 179.924714 
L 275.65083 175.053678 
L 279.611541 185.690089 
L 283.576443 185.359938 
L 287.541344 180.25022 
L 291.502055 186.302592 
L 295.466957 190.543111 
L 299.427668 189.305339 
L 303.392569 189.809507 
L 307.35328 195.370233 
L 311.318182 184.527384 
" style="fill:none;stroke:#1a991a;stroke-linecap:square;stroke-width:1.5;"/>
   </g>
   <g id="line2d_14">
    <path clip-path="url(#p4c42db06e9)" d="M 57.681818 414.314721 
L 61.64672 417.959606 
L 65.607431 422.120731 
L 69.572332 422.265167 
L 73.533043 444.188157 
L 77.497945 424.339007 
L 81.458656 463.170049 
L 85.423557 439.549554 
L 89.384268 440.834704 
L 93.34917 430.341082 
L 97.314072 403.229954 
L 101.274782 383.194218 
L 105.239684 353.123725 
L 109.200395 341.576861 
L 113.165297 326.353281 
L 117.126007 342.9518 
L 121.090909 313.045591 
L 125.055811 303.094944 
L 129.016522 304.485071 
L 132.981423 304.286911 
L 136.942134 287.917615 
L 140.907036 289.389156 
L 144.867746 297.345879 
L 148.832648 298.383721 
L 152.793359 294.807176 
L 156.758261 300.958261 
L 160.723163 298.645542 
L 164.683873 304.674454 
L 168.648775 304.048771 
L 172.609486 302.897785 
L 176.574388 304.215871 
L 180.535098 317.190277 
L 184.5 304.926938 
L 188.464902 313.303112 
L 192.425612 311.350337 
L 196.390514 322.39609 
L 200.351225 326.008478 
L 204.316127 337.684735 
L 208.276837 324.997049 
L 212.241739 329.955763 
L 216.20245 325.986893 
L 220.167352 336.680125 
L 224.132254 330.586638 
L 228.092964 337.202759 
L 232.057866 335.105279 
L 236.018577 347.708973 
L 239.983478 356.766785 
L 243.944189 348.726376 
L 247.909091 359.118689 
L 251.873993 357.466021 
L 255.834703 360.614769 
L 259.799605 366.967876 
L 263.760316 364.616371 
L 267.725218 366.670993 
L 271.685928 355.985584 
L 275.65083 364.093481 
L 279.611541 364.40008 
L 283.576443 368.101637 
L 287.541344 369.246079 
L 291.502055 367.080373 
L 295.466957 363.509256 
L 299.427668 368.449778 
L 303.392569 370.237424 
L 307.35328 378.746694 
L 311.318182 371.452386 
" style="fill:none;stroke:#cc66cc;stroke-linecap:square;stroke-width:1.5;"/>
   </g>
   <g id="line2d_15">
    <path clip-path="url(#p4c42db06e9)" d="M 57.681818 424.82715 
L 61.64672 424.493577 
L 65.607431 417.054361 
L 69.572332 424.84983 
L 73.533043 429.623464 
L 77.497945 422.505457 
L 81.458656 424.623224 
L 85.423557 421.4848 
L 89.384268 425.431269 
L 93.34917 420.607251 
L 97.314072 420.543342 
L 101.274782 415.827373 
L 105.239684 417.687579 
L 109.200395 417.976368 
L 113.165297 418.518488 
L 117.126007 419.921357 
L 121.090909 415.992458 
L 125.055811 415.527756 
L 129.016522 418.183741 
L 132.981423 416.88158 
L 136.942134 414.157215 
L 140.907036 413.161215 
L 144.867746 414.673064 
L 148.832648 415.295106 
L 152.793359 416.471863 
L 156.758261 415.092331 
L 160.723163 412.896174 
L 164.683873 418.952662 
L 168.648775 414.937307 
L 172.609486 416.590967 
L 176.574388 419.056226 
L 180.535098 419.132727 
L 184.5 417.52052 
L 188.464902 419.742766 
L 192.425612 419.216946 
L 196.390514 410.448746 
L 200.351225 419.894148 
L 204.316127 416.714876 
L 208.276837 416.843514 
L 212.241739 413.084885 
L 216.20245 417.319731 
L 220.167352 415.342567 
L 224.132254 414.365675 
L 228.092964 417.091846 
L 232.057866 417.416983 
L 236.018577 423.833597 
L 239.983478 420.257253 
L 243.944189 415.101377 
L 247.909091 419.408729 
L 251.873993 420.242586 
L 255.834703 418.409497 
L 259.799605 420.914615 
L 263.760316 421.591289 
L 267.725218 418.381841 
L 271.685928 423.463595 
L 275.65083 421.507039 
L 279.611541 421.851471 
L 283.576443 427.190176 
L 287.541344 422.871919 
L 291.502055 422.560537 
L 295.466957 427.592932 
L 299.427668 421.312846 
L 303.392569 427.944884 
L 307.35328 421.430625 
L 311.318182 423.981527 
" style="fill:none;stroke:#6666ff;stroke-linecap:square;stroke-width:1.5;"/>
   </g>
   <g id="line2d_16">
    <path clip-path="url(#p4c42db06e9)" d="M 73.533043 504 
L 73.533043 69.12 
" style="fill:none;stroke:#ff0000;stroke-linecap:square;stroke-width:2;"/>
   </g>
   <g id="patch_3">
    <path d="M 45 504 
L 45 69.12 
" style="fill:none;stroke:#000000;stroke-linecap:square;stroke-linejoin:miter;stroke-width:0.8;"/>
   </g>
   <g id="patch_4">
    <path d="M 324 504 
L 324 69.12 
" style="fill:none;stroke:#000000;stroke-linecap:square;stroke-linejoin:miter;stroke-width:0.8;"/>
   </g>
   <g id="patch_5">
    <path d="M 45 504 
L 324 504 
" style="fill:none;stroke:#000000;stroke-linecap:square;stroke-linejoin:miter;stroke-width:0.8;"/>
   </g>
   <g id="patch_6">
    <path d="M 45 69.12 
L 324 69.12 
" style="fill:none;stroke:#000000;stroke-linecap:square;stroke-linejoin:miter;stroke-width:0.8;"/>
   </g>
   <g id="legend_1">
    <g id="patch_7">
     <path d="M 214.47 113.9475 
L 315.6 113.9475 
Q 318 113.9475 318 111.5475 
L 318 77.52 
Q 318 75.12 315.6 75.12 
L 214.47 75.12 
Q 212.07 75.12 212.07 77.52 
L 212.07 111.5475 
Q 212.07 113.9475 214.47 113.9475 
z
" style="fill:#ffffff;opacity:0.8;stroke:#cccccc;stroke-linejoin:miter;"/>
    </g>
    <g id="line2d_17">
     <path d="M 216.87 84.838125 
L 240.87 84.838125 
" style="fill:none;stroke:#1a991a;stroke-linecap:square;stroke-width:1.5;"/>
    </g>
    <g id="line2d_18"/>
    <g id="text_15">
     <!-- ATP -->
     <defs>
      <path d="M 34.1875 63.1875 
L 20.796875 26.90625 
L 47.609375 26.90625 
z
M 28.609375 72.90625 
L 39.796875 72.90625 
L 67.578125 0 
L 57.328125 0 
L 50.6875 18.703125 
L 17.828125 18.703125 
L 11.1875 0 
L 0.78125 0 
z
" id="DejaVuSans-65"/>
      <path d="M -0.296875 72.90625 
L 61.375 72.90625 
L 61.375 64.59375 
L 35.5 64.59375 
L 35.5 0 
L 25.59375 0 
L 25.59375 64.59375 
L -0.296875 64.59375 
z
" id="DejaVuSans-84"/>
      <path d="M 19.671875 64.796875 
L 19.671875 37.40625 
L 32.078125 37.40625 
Q 38.96875 37.40625 42.71875 40.96875 
Q 46.484375 44.53125 46.484375 51.125 
Q 46.484375 57.671875 42.71875 61.234375 
Q 38.96875 64.796875 32.078125 64.796875 
z
M 9.8125 72.90625 
L 32.078125 72.90625 
Q 44.34375 72.90625 50.609375 67.359375 
Q 56.890625 61.8125 56.890625 51.125 
Q 56.890625 40.328125 50.609375 34.8125 
Q 44.34375 29.296875 32.078125 29.296875 
L 19.671875 29.296875 
L 19.671875 0 
L 9.8125 0 
z
" id="DejaVuSans-80"/>
     </defs>
     <g transform="translate(250.47 89.038125)scale(0.12 -0.12)">
      <use xlink:href="#DejaVuSans-65"/>
      <use x="68.298828" xlink:href="#DejaVuSans-84"/>
      <use x="129.382812" xlink:href="#DejaVuSans-80"/>
     </g>
    </g>
    <g id="line2d_19">
     <path d="M 216.87 102.451875 
L 240.87 102.451875 
" style="fill:none;stroke:#cc66cc;stroke-linecap:square;stroke-width:1.5;"/>
    </g>
    <g id="line2d_20"/>
    <g id="text_16">
     <!-- Adenosine -->
     <defs>
      <path d="M 54.890625 33.015625 
L 54.890625 0 
L 45.90625 0 
L 45.90625 32.71875 
Q 45.90625 40.484375 42.875 44.328125 
Q 39.84375 48.1875 33.796875 48.1875 
Q 26.515625 48.1875 22.3125 43.546875 
Q 18.109375 38.921875 18.109375 30.90625 
L 18.109375 0 
L 9.078125 0 
L 9.078125 54.6875 
L 18.109375 54.6875 
L 18.109375 46.1875 
Q 21.34375 51.125 25.703125 53.5625 
Q 30.078125 56 35.796875 56 
Q 45.21875 56 50.046875 50.171875 
Q 54.890625 44.34375 54.890625 33.015625 
z
" id="DejaVuSans-110"/>
      <path d="M 30.609375 48.390625 
Q 23.390625 48.390625 19.1875 42.75 
Q 14.984375 37.109375 14.984375 27.296875 
Q 14.984375 17.484375 19.15625 11.84375 
Q 23.34375 6.203125 30.609375 6.203125 
Q 37.796875 6.203125 41.984375 11.859375 
Q 46.1875 17.53125 46.1875 27.296875 
Q 46.1875 37.015625 41.984375 42.703125 
Q 37.796875 48.390625 30.609375 48.390625 
z
M 30.609375 56 
Q 42.328125 56 49.015625 48.375 
Q 55.71875 40.765625 55.71875 27.296875 
Q 55.71875 13.875 49.015625 6.21875 
Q 42.328125 -1.421875 30.609375 -1.421875 
Q 18.84375 -1.421875 12.171875 6.21875 
Q 5.515625 13.875 5.515625 27.296875 
Q 5.515625 40.765625 12.171875 48.375 
Q 18.84375 56 30.609375 56 
z
" id="DejaVuSans-111"/>
     </defs>
     <g transform="translate(250.47 106.651875)scale(0.12 -0.12)">
      <use xlink:href="#DejaVuSans-65"/>
      <use x="68.392578" xlink:href="#DejaVuSans-100"/>
      <use x="131.869141" xlink:href="#DejaVuSans-101"/>
      <use x="193.392578" xlink:href="#DejaVuSans-110"/>
      <use x="256.771484" xlink:href="#DejaVuSans-111"/>
      <use x="317.953125" xlink:href="#DejaVuSans-115"/>
      <use x="370.052734" xlink:href="#DejaVuSans-105"/>
      <use x="397.835938" xlink:href="#DejaVuSans-110"/>
      <use x="461.214844" xlink:href="#DejaVuSans-101"/>
     </g>
    </g>
   </g>
  </g>
 </g>
 <defs>
  <clipPath id="p4c42db06e9">
   <rect height="434.88" width="279" x="45" y="69.12"/>
  </clipPath>
 </defs>
</svg>
