<?xml version="1.0" encoding="utf-8" standalone="no"?>
<!DOCTYPE svg PUBLIC "-//W3C//DTD SVG 1.1//EN"
  "http://www.w3.org/Graphics/SVG/1.1/DTD/svg11.dtd">
<!-- Created with matplotlib (https://matplotlib.org/) -->
<svg height="576pt" version="1.1" viewBox="0 0 360 576" width="360pt" xmlns="http://www.w3.org/2000/svg" xmlns:xlink="http://www.w3.org/1999/xlink">
 <defs>
  <style type="text/css">
*{stroke-linecap:butt;stroke-linejoin:round;}
  </style>
 </defs>
 <g id="figure_1">
  <g id="patch_1">
   <path d="M 0 576 
L 360 576 
L 360 0 
L 0 0 
z
" style="fill:#ffffff;"/>
  </g>
  <g id="axes_1">
   <g id="patch_2">
    <path d="M 45 504 
L 324 504 
L 324 69.12 
L 45 69.12 
z
" style="fill:#ffffff;"/>
   </g>
   <g id="PolyCollection_1">
    <defs>
     <path d="M 45 -98.77756 
L 45 -92.381314 
L 49.3989 -91.767273 
L 53.79315 -95.313189 
L 58.19205 -101.646241 
L 62.5863 -117.453733 
L 66.9852 -145.596676 
L 71.37945 -181.920653 
L 75.77835 -224.308857 
L 80.1726 -251.368153 
L 84.5715 -262.002166 
L 88.9704 -261.058938 
L 93.36465 -260.672499 
L 97.76355 -257.481132 
L 102.1578 -253.880949 
L 106.5567 -249.344263 
L 110.95095 -245.117026 
L 115.34985 -241.218908 
L 119.74875 -236.76337 
L 124.143 -233.789978 
L 128.5419 -229.849111 
L 132.93615 -224.640759 
L 137.33505 -224.375664 
L 141.7293 -221.20491 
L 146.1282 -216.767982 
L 150.52245 -214.676827 
L 154.92135 -210.899967 
L 159.32025 -209.348723 
L 163.7145 -205.887291 
L 168.1134 -203.360912 
L 172.50765 -199.53249 
L 176.90655 -198.301322 
L 181.3008 -196.168914 
L 185.6997 -194.002704 
L 190.0986 -193.54411 
L 194.49285 -189.567476 
L 198.89175 -189.699175 
L 203.286 -183.452803 
L 207.6849 -184.586213 
L 212.07915 -183.590937 
L 216.47805 -179.911492 
L 220.8723 -178.873213 
L 225.2712 -177.559609 
L 229.6701 -174.818491 
L 234.06435 -172.915779 
L 238.46325 -170.92708 
L 242.8575 -169.734752 
L 247.2564 -169.198618 
L 251.65065 -166.998219 
L 256.04955 -166.11614 
L 260.44845 -161.910546 
L 264.8427 -162.410402 
L 269.2416 -160.045568 
L 273.63585 -156.497818 
L 278.03475 -157.954361 
L 282.429 -157.719256 
L 286.8279 -155.639841 
L 291.22215 -152.407132 
L 295.62105 -152.835931 
L 300.01995 -150.300593 
L 304.4142 -149.148832 
L 308.8131 -149.105325 
L 313.20735 -146.699873 
L 317.60625 -146.750791 
L 322.0005 -143.023517 
L 326.3994 -144.753608 
L 326.3994 -199.366776 
L 326.3994 -199.366776 
L 322.0005 -199.527753 
L 317.60625 -202.635325 
L 313.20735 -205.913455 
L 308.8131 -210.073096 
L 304.4142 -210.249229 
L 300.01995 -215.913142 
L 295.62105 -217.015658 
L 291.22215 -219.115066 
L 286.8279 -223.188955 
L 282.429 -227.128053 
L 278.03475 -228.203529 
L 273.63585 -229.273343 
L 269.2416 -234.935341 
L 264.8427 -239.919407 
L 260.44845 -241.498561 
L 256.04955 -247.038649 
L 251.65065 -247.557889 
L 247.2564 -253.732103 
L 242.8575 -258.388178 
L 238.46325 -260.404759 
L 234.06435 -264.03618 
L 229.6701 -268.942338 
L 225.2712 -273.597774 
L 220.8723 -278.740297 
L 216.47805 -283.323574 
L 212.07915 -288.064497 
L 207.6849 -291.160361 
L 203.286 -292.634049 
L 198.89175 -300.533416 
L 194.49285 -304.095704 
L 190.0986 -311.747523 
L 185.6997 -316.840141 
L 181.3008 -322.470638 
L 176.90655 -327.014423 
L 172.50765 -329.928159 
L 168.1134 -340.586435 
L 163.7145 -346.833598 
L 159.32025 -354.150832 
L 154.92135 -359.526274 
L 150.52245 -368.281307 
L 146.1282 -373.930304 
L 141.7293 -384.685835 
L 137.33505 -391.154769 
L 132.93615 -395.465153 
L 128.5419 -409.858716 
L 124.143 -417.021485 
L 119.74875 -426.586832 
L 115.34985 -435.344633 
L 110.95095 -449.375214 
L 106.5567 -461.711223 
L 102.1578 -474.567122 
L 97.76355 -485.245235 
L 93.36465 -487.112727 
L 88.9704 -477.518087 
L 84.5715 -423.963498 
L 80.1726 -377.882424 
L 75.77835 -321.152075 
L 71.37945 -248.593288 
L 66.9852 -185.345991 
L 62.5863 -132.729259 
L 58.19205 -104.61291 
L 53.79315 -99.348552 
L 49.3989 -97.472943 
L 45 -98.77756 
z
" id="me7e1f15fa4" style="stroke:#4cff4c;stroke-opacity:0.2;"/>
    </defs>
    <g clip-path="url(#p9f5cf79d67)">
     <use style="fill:#4cff4c;fill-opacity:0.2;stroke:#4cff4c;stroke-opacity:0.2;" x="0" xlink:href="#me7e1f15fa4" y="576"/>
    </g>
   </g>
   <g id="PolyCollection_2">
    <path clip-path="url(#p9f5cf79d67)" d="M 45 472.575469 
L 45 473.081288 
L 49.3989 472.837899 
L 53.79315 472.653121 
L 58.19205 472.476192 
L 62.5863 474.570688 
L 66.9852 470.202437 
L 66.9852 469.15473 
L 66.9852 469.15473 
L 62.5863 473.657202 
L 58.19205 472.051896 
L 53.79315 472.237357 
L 49.3989 472.355914 
L 45 472.575469 
z
" style="fill:#ff66ff;fill-opacity:0.2;stroke:#ff66ff;stroke-opacity:0.2;"/>
    <path clip-path="url(#p9f5cf79d67)" d="M 75.77835 468.77932 
L 75.77835 469.885501 
L 80.1726 470.434378 
L 84.5715 470.165422 
L 88.9704 469.928004 
L 93.36465 470.435736 
L 97.76355 470.528853 
L 102.1578 470.269853 
L 106.5567 470.370557 
L 106.5567 469.432724 
L 106.5567 469.432724 
L 102.1578 469.299231 
L 97.76355 469.387129 
L 93.36465 469.502781 
L 88.9704 468.915493 
L 84.5715 469.076552 
L 80.1726 469.198824 
L 75.77835 468.77932 
z
" style="fill:#ff66ff;fill-opacity:0.2;stroke:#ff66ff;stroke-opacity:0.2;"/>
    <path clip-path="url(#p9f5cf79d67)" d="M 128.5419 470.181644 
L 128.5419 471.142283 
L 132.93615 471.00756 
L 137.33505 470.526254 
L 141.7293 470.621857 
L 146.1282 470.583565 
L 150.52245 470.841607 
L 150.52245 470.019671 
L 150.52245 470.019671 
L 146.1282 469.646115 
L 141.7293 469.807418 
L 137.33505 469.655332 
L 132.93615 470.219902 
L 128.5419 470.181644 
z
" style="fill:#ff66ff;fill-opacity:0.2;stroke:#ff66ff;stroke-opacity:0.2;"/>
    <path clip-path="url(#p9f5cf79d67)" d="M 176.90655 470.912571 
L 176.90655 471.746747 
L 176.90655 470.912571 
L 176.90655 470.912571 
z
" style="fill:#ff66ff;fill-opacity:0.2;stroke:#ff66ff;stroke-opacity:0.2;"/>
    <path clip-path="url(#p9f5cf79d67)" d="M 194.49285 470.981731 
L 194.49285 471.804373 
L 198.89175 471.621497 
L 198.89175 470.742113 
L 198.89175 470.742113 
L 194.49285 470.981731 
z
" style="fill:#ff66ff;fill-opacity:0.2;stroke:#ff66ff;stroke-opacity:0.2;"/>
    <path clip-path="url(#p9f5cf79d67)" d="M 212.07915 470.730589 
L 212.07915 471.539785 
L 212.07915 470.730589 
L 212.07915 470.730589 
z
" style="fill:#ff66ff;fill-opacity:0.2;stroke:#ff66ff;stroke-opacity:0.2;"/>
    <path clip-path="url(#p9f5cf79d67)" d="M 225.2712 471.130743 
L 225.2712 472.060692 
L 229.6701 471.788774 
L 229.6701 470.780175 
L 229.6701 470.780175 
L 225.2712 471.130743 
z
" style="fill:#ff66ff;fill-opacity:0.2;stroke:#ff66ff;stroke-opacity:0.2;"/>
   </g>
   <g id="PolyCollection_3">
    <path clip-path="url(#p9f5cf79d67)" d="M 45 471.730535 
L 45 472.573668 
L 47.325 473.71265 
L 49.65 473.611283 
L 51.975 473.14635 
L 54.3 472.987524 
L 56.625 473.355268 
L 58.95 473.943275 
L 61.275 473.901175 
L 63.6 474.055605 
L 65.925 478.747667 
L 68.25 474.766138 
L 70.575 468.330902 
L 72.9 466.74859 
L 75.225 465.99094 
L 77.55 467.484187 
L 79.875 467.461717 
L 82.2 466.353845 
L 84.525 466.104852 
L 86.85 467.237727 
L 89.175 467.372502 
L 91.5 467.759522 
L 93.825 466.944375 
L 96.15 467.088078 
L 98.475 466.827633 
L 100.8 467.541512 
L 103.125 467.672299 
L 105.45 467.878602 
L 107.775 468.340298 
L 110.1 468.026397 
L 112.425 467.987936 
L 114.75 468.379812 
L 117.075 467.279741 
L 119.4 469.320829 
L 121.725 467.460674 
L 124.05 467.80439 
L 126.375 467.922066 
L 128.7 467.78238 
L 131.025 467.955287 
L 133.35 467.85875 
L 135.675 467.547709 
L 138 467.439152 
L 140.325 467.559929 
L 142.65 468.325198 
L 144.975 469.146332 
L 147.3 468.562599 
L 149.625 468.479098 
L 151.95 468.458387 
L 154.275 468.243032 
L 154.275 465.781451 
L 154.275 465.781451 
L 151.95 465.95188 
L 149.625 466.099162 
L 147.3 465.904216 
L 144.975 466.530709 
L 142.65 465.782233 
L 140.325 464.918054 
L 138 464.754133 
L 135.675 464.981353 
L 133.35 465.138837 
L 131.025 465.009465 
L 128.7 465.015752 
L 126.375 465.392989 
L 124.05 464.873339 
L 121.725 464.692037 
L 119.4 466.362469 
L 117.075 464.381506 
L 114.75 465.18153 
L 112.425 465.18126 
L 110.1 465.059517 
L 107.775 465.321913 
L 105.45 464.753161 
L 103.125 464.676814 
L 100.8 464.130917 
L 98.475 463.736109 
L 96.15 463.588404 
L 93.825 463.663487 
L 91.5 464.229004 
L 89.175 463.642457 
L 86.85 463.682669 
L 84.525 462.499593 
L 82.2 462.638591 
L 79.875 463.947597 
L 77.55 464.131543 
L 75.225 462.603652 
L 72.9 463.504267 
L 70.575 464.672152 
L 68.25 470.04202 
L 65.925 473.726056 
L 63.6 472.488073 
L 61.275 472.855336 
L 58.95 472.7865 
L 56.625 472.477347 
L 54.3 472.225501 
L 51.975 472.507915 
L 49.65 473.00081 
L 47.325 473.000791 
L 45 471.730535 
z
" style="fill:#6666ff;fill-opacity:0.2;stroke:#6666ff;stroke-opacity:0.2;"/>
    <path clip-path="url(#p9f5cf79d67)" d="M 158.925 466.115001 
L 158.925 468.315319 
L 161.25 468.367281 
L 163.575 468.638644 
L 165.9 468.677967 
L 168.225 469.521085 
L 170.55 469.175204 
L 172.875 468.698251 
L 175.2 469.249216 
L 177.525 469.126104 
L 179.85 469.394838 
L 182.175 468.854099 
L 184.5 469.313431 
L 186.825 469.562406 
L 189.15 469.326853 
L 191.475 469.540801 
L 191.475 467.314956 
L 191.475 467.314956 
L 189.15 467.073906 
L 186.825 467.570168 
L 184.5 467.156942 
L 182.175 466.262195 
L 179.85 467.207031 
L 177.525 467.005854 
L 175.2 466.897457 
L 172.875 466.282731 
L 170.55 467.001383 
L 168.225 467.233376 
L 165.9 466.182685 
L 163.575 466.298099 
L 161.25 465.959837 
L 158.925 466.115001 
z
" style="fill:#6666ff;fill-opacity:0.2;stroke:#6666ff;stroke-opacity:0.2;"/>
    <path clip-path="url(#p9f5cf79d67)" d="M 196.125 466.725377 
L 196.125 468.597897 
L 198.45 468.648543 
L 198.45 466.488191 
L 198.45 466.488191 
L 196.125 466.725377 
z
" style="fill:#6666ff;fill-opacity:0.2;stroke:#6666ff;stroke-opacity:0.2;"/>
    <path clip-path="url(#p9f5cf79d67)" d="M 203.1 467.728135 
L 203.1 469.735285 
L 205.425 469.442752 
L 205.425 467.486165 
L 205.425 467.486165 
L 203.1 467.728135 
z
" style="fill:#6666ff;fill-opacity:0.2;stroke:#6666ff;stroke-opacity:0.2;"/>
    <path clip-path="url(#p9f5cf79d67)" d="M 210.075 467.844951 
L 210.075 469.717542 
L 212.4 469.83545 
L 214.725 470.138632 
L 214.725 468.203381 
L 214.725 468.203381 
L 212.4 468.016894 
L 210.075 467.844951 
z
" style="fill:#6666ff;fill-opacity:0.2;stroke:#6666ff;stroke-opacity:0.2;"/>
    <path clip-path="url(#p9f5cf79d67)" d="M 219.375 468.140755 
L 219.375 469.811226 
L 221.7 469.861909 
L 221.7 467.894384 
L 221.7 467.894384 
L 219.375 468.140755 
z
" style="fill:#6666ff;fill-opacity:0.2;stroke:#6666ff;stroke-opacity:0.2;"/>
    <path clip-path="url(#p9f5cf79d67)" d="M 226.35 467.929616 
L 226.35 469.90683 
L 226.35 467.929616 
L 226.35 467.929616 
z
" style="fill:#6666ff;fill-opacity:0.2;stroke:#6666ff;stroke-opacity:0.2;"/>
    <path clip-path="url(#p9f5cf79d67)" d="M 231 468.920516 
L 231 470.485019 
L 233.325 471.032775 
L 235.65 470.276657 
L 235.65 468.474356 
L 235.65 468.474356 
L 233.325 469.27209 
L 231 468.920516 
z
" style="fill:#6666ff;fill-opacity:0.2;stroke:#6666ff;stroke-opacity:0.2;"/>
    <path clip-path="url(#p9f5cf79d67)" d="M 240.3 468.443289 
L 240.3 470.068042 
L 240.3 468.443289 
L 240.3 468.443289 
z
" style="fill:#6666ff;fill-opacity:0.2;stroke:#6666ff;stroke-opacity:0.2;"/>
    <path clip-path="url(#p9f5cf79d67)" d="M 247.275 469.100972 
L 247.275 470.818134 
L 249.6 471.341678 
L 251.925 471.495011 
L 254.25 471.083042 
L 256.575 472.512059 
L 258.9 472.111132 
L 261.225 471.290431 
L 263.55 471.526039 
L 263.55 469.62466 
L 263.55 469.62466 
L 261.225 470.015036 
L 258.9 470.539764 
L 256.575 470.356023 
L 254.25 469.74547 
L 251.925 469.770531 
L 249.6 469.573258 
L 247.275 469.100972 
z
" style="fill:#6666ff;fill-opacity:0.2;stroke:#6666ff;stroke-opacity:0.2;"/>
    <path clip-path="url(#p9f5cf79d67)" d="M 272.85 470.293825 
L 272.85 472.19479 
L 275.175 472.761023 
L 275.175 470.754716 
L 275.175 470.754716 
L 272.85 470.293825 
z
" style="fill:#6666ff;fill-opacity:0.2;stroke:#6666ff;stroke-opacity:0.2;"/>
    <path clip-path="url(#p9f5cf79d67)" d="M 286.8 470.38581 
L 286.8 472.002509 
L 289.125 472.750922 
L 289.125 471.269506 
L 289.125 471.269506 
L 286.8 470.38581 
z
" style="fill:#6666ff;fill-opacity:0.2;stroke:#6666ff;stroke-opacity:0.2;"/>
    <path clip-path="url(#p9f5cf79d67)" d="M 296.1 469.697971 
L 296.1 471.365627 
L 298.425 471.957463 
L 298.425 470.753197 
L 298.425 470.753197 
L 296.1 469.697971 
z
" style="fill:#6666ff;fill-opacity:0.2;stroke:#6666ff;stroke-opacity:0.2;"/>
    <path clip-path="url(#p9f5cf79d67)" d="M 305.4 471.777859 
L 305.4 473.128767 
L 307.725 473.164135 
L 307.725 471.615421 
L 307.725 471.615421 
L 305.4 471.777859 
z
" style="fill:#6666ff;fill-opacity:0.2;stroke:#6666ff;stroke-opacity:0.2;"/>
    <path clip-path="url(#p9f5cf79d67)" d="M 319.35 471.524072 
L 319.35 472.694465 
L 319.35 471.524072 
L 319.35 471.524072 
z
" style="fill:#6666ff;fill-opacity:0.2;stroke:#6666ff;stroke-opacity:0.2;"/>
    <path clip-path="url(#p9f5cf79d67)" d="M 326.325 471.791738 
L 326.325 473.171644 
L 326.325 471.791738 
L 326.325 471.791738 
z
" style="fill:#6666ff;fill-opacity:0.2;stroke:#6666ff;stroke-opacity:0.2;"/>
    <path clip-path="url(#p9f5cf79d67)" d="M 344.925 471.932303 
L 344.925 473.072981 
L 344.925 471.932303 
L 344.925 471.932303 
z
" style="fill:#6666ff;fill-opacity:0.2;stroke:#6666ff;stroke-opacity:0.2;"/>
   </g>
   <g id="matplotlib.axis_1">
    <g id="xtick_1">
     <g id="line2d_1">
      <defs>
       <path d="M 0 0 
L 0 3.5 
" id="me2c21bd639" style="stroke:#000000;stroke-width:0.8;"/>
      </defs>
      <g>
       <use style="stroke:#000000;stroke-width:0.8;" x="45" xlink:href="#me2c21bd639" y="504"/>
      </g>
     </g>
     <g id="text_1">
      <!-- 0 -->
      <defs>
       <path d="M 31.78125 66.40625 
Q 24.171875 66.40625 20.328125 58.90625 
Q 16.5 51.421875 16.5 36.375 
Q 16.5 21.390625 20.328125 13.890625 
Q 24.171875 6.390625 31.78125 6.390625 
Q 39.453125 6.390625 43.28125 13.890625 
Q 47.125 21.390625 47.125 36.375 
Q 47.125 51.421875 43.28125 58.90625 
Q 39.453125 66.40625 31.78125 66.40625 
z
M 31.78125 74.21875 
Q 44.046875 74.21875 50.515625 64.515625 
Q 56.984375 54.828125 56.984375 36.375 
Q 56.984375 17.96875 50.515625 8.265625 
Q 44.046875 -1.421875 31.78125 -1.421875 
Q 19.53125 -1.421875 13.0625 8.265625 
Q 6.59375 17.96875 6.59375 36.375 
Q 6.59375 54.828125 13.0625 64.515625 
Q 19.53125 74.21875 31.78125 74.21875 
z
" id="DejaVuSans-48"/>
      </defs>
      <g transform="translate(39.27375 524.677187)scale(0.18 -0.18)">
       <use xlink:href="#DejaVuSans-48"/>
      </g>
     </g>
    </g>
    <g id="xtick_2">
     <g id="line2d_2">
      <g>
       <use style="stroke:#000000;stroke-width:0.8;" x="91.5" xlink:href="#me2c21bd639" y="504"/>
      </g>
     </g>
     <g id="text_2">
      <!-- 10 -->
      <defs>
       <path d="M 12.40625 8.296875 
L 28.515625 8.296875 
L 28.515625 63.921875 
L 10.984375 60.40625 
L 10.984375 69.390625 
L 28.421875 72.90625 
L 38.28125 72.90625 
L 38.28125 8.296875 
L 54.390625 8.296875 
L 54.390625 0 
L 12.40625 0 
z
" id="DejaVuSans-49"/>
      </defs>
      <g transform="translate(80.0475 524.677187)scale(0.18 -0.18)">
       <use xlink:href="#DejaVuSans-49"/>
       <use x="63.623047" xlink:href="#DejaVuSans-48"/>
      </g>
     </g>
    </g>
    <g id="xtick_3">
     <g id="line2d_3">
      <g>
       <use style="stroke:#000000;stroke-width:0.8;" x="138" xlink:href="#me2c21bd639" y="504"/>
      </g>
     </g>
     <g id="text_3">
      <!-- 20 -->
      <defs>
       <path d="M 19.1875 8.296875 
L 53.609375 8.296875 
L 53.609375 0 
L 7.328125 0 
L 7.328125 8.296875 
Q 12.9375 14.109375 22.625 23.890625 
Q 32.328125 33.6875 34.8125 36.53125 
Q 39.546875 41.84375 41.421875 45.53125 
Q 43.3125 49.21875 43.3125 52.78125 
Q 43.3125 58.59375 39.234375 62.25 
Q 35.15625 65.921875 28.609375 65.921875 
Q 23.96875 65.921875 18.8125 64.3125 
Q 13.671875 62.703125 7.8125 59.421875 
L 7.8125 69.390625 
Q 13.765625 71.78125 18.9375 73 
Q 24.125 74.21875 28.421875 74.21875 
Q 39.75 74.21875 46.484375 68.546875 
Q 53.21875 62.890625 53.21875 53.421875 
Q 53.21875 48.921875 51.53125 44.890625 
Q 49.859375 40.875 45.40625 35.40625 
Q 44.1875 33.984375 37.640625 27.21875 
Q 31.109375 20.453125 19.1875 8.296875 
z
" id="DejaVuSans-50"/>
      </defs>
      <g transform="translate(126.5475 524.677187)scale(0.18 -0.18)">
       <use xlink:href="#DejaVuSans-50"/>
       <use x="63.623047" xlink:href="#DejaVuSans-48"/>
      </g>
     </g>
    </g>
    <g id="xtick_4">
     <g id="line2d_4">
      <g>
       <use style="stroke:#000000;stroke-width:0.8;" x="184.5" xlink:href="#me2c21bd639" y="504"/>
      </g>
     </g>
     <g id="text_4">
      <!-- 30 -->
      <defs>
       <path d="M 40.578125 39.3125 
Q 47.65625 37.796875 51.625 33 
Q 55.609375 28.21875 55.609375 21.1875 
Q 55.609375 10.40625 48.1875 4.484375 
Q 40.765625 -1.421875 27.09375 -1.421875 
Q 22.515625 -1.421875 17.65625 -0.515625 
Q 12.796875 0.390625 7.625 2.203125 
L 7.625 11.71875 
Q 11.71875 9.328125 16.59375 8.109375 
Q 21.484375 6.890625 26.8125 6.890625 
Q 36.078125 6.890625 40.9375 10.546875 
Q 45.796875 14.203125 45.796875 21.1875 
Q 45.796875 27.640625 41.28125 31.265625 
Q 36.765625 34.90625 28.71875 34.90625 
L 20.21875 34.90625 
L 20.21875 43.015625 
L 29.109375 43.015625 
Q 36.375 43.015625 40.234375 45.921875 
Q 44.09375 48.828125 44.09375 54.296875 
Q 44.09375 59.90625 40.109375 62.90625 
Q 36.140625 65.921875 28.71875 65.921875 
Q 24.65625 65.921875 20.015625 65.03125 
Q 15.375 64.15625 9.8125 62.3125 
L 9.8125 71.09375 
Q 15.4375 72.65625 20.34375 73.4375 
Q 25.25 74.21875 29.59375 74.21875 
Q 40.828125 74.21875 47.359375 69.109375 
Q 53.90625 64.015625 53.90625 55.328125 
Q 53.90625 49.265625 50.4375 45.09375 
Q 46.96875 40.921875 40.578125 39.3125 
z
" id="DejaVuSans-51"/>
      </defs>
      <g transform="translate(173.0475 524.677187)scale(0.18 -0.18)">
       <use xlink:href="#DejaVuSans-51"/>
       <use x="63.623047" xlink:href="#DejaVuSans-48"/>
      </g>
     </g>
    </g>
    <g id="xtick_5">
     <g id="line2d_5">
      <g>
       <use style="stroke:#000000;stroke-width:0.8;" x="231" xlink:href="#me2c21bd639" y="504"/>
      </g>
     </g>
     <g id="text_5">
      <!-- 40 -->
      <defs>
       <path d="M 37.796875 64.3125 
L 12.890625 25.390625 
L 37.796875 25.390625 
z
M 35.203125 72.90625 
L 47.609375 72.90625 
L 47.609375 25.390625 
L 58.015625 25.390625 
L 58.015625 17.1875 
L 47.609375 17.1875 
L 47.609375 0 
L 37.796875 0 
L 37.796875 17.1875 
L 4.890625 17.1875 
L 4.890625 26.703125 
z
" id="DejaVuSans-52"/>
      </defs>
      <g transform="translate(219.5475 524.677187)scale(0.18 -0.18)">
       <use xlink:href="#DejaVuSans-52"/>
       <use x="63.623047" xlink:href="#DejaVuSans-48"/>
      </g>
     </g>
    </g>
    <g id="xtick_6">
     <g id="line2d_6">
      <g>
       <use style="stroke:#000000;stroke-width:0.8;" x="277.5" xlink:href="#me2c21bd639" y="504"/>
      </g>
     </g>
     <g id="text_6">
      <!-- 50 -->
      <defs>
       <path d="M 10.796875 72.90625 
L 49.515625 72.90625 
L 49.515625 64.59375 
L 19.828125 64.59375 
L 19.828125 46.734375 
Q 21.96875 47.46875 24.109375 47.828125 
Q 26.265625 48.1875 28.421875 48.1875 
Q 40.625 48.1875 47.75 41.5 
Q 54.890625 34.8125 54.890625 23.390625 
Q 54.890625 11.625 47.5625 5.09375 
Q 40.234375 -1.421875 26.90625 -1.421875 
Q 22.3125 -1.421875 17.546875 -0.640625 
Q 12.796875 0.140625 7.71875 1.703125 
L 7.71875 11.625 
Q 12.109375 9.234375 16.796875 8.0625 
Q 21.484375 6.890625 26.703125 6.890625 
Q 35.15625 6.890625 40.078125 11.328125 
Q 45.015625 15.765625 45.015625 23.390625 
Q 45.015625 31 40.078125 35.4375 
Q 35.15625 39.890625 26.703125 39.890625 
Q 22.75 39.890625 18.8125 39.015625 
Q 14.890625 38.140625 10.796875 36.28125 
z
" id="DejaVuSans-53"/>
      </defs>
      <g transform="translate(266.0475 524.677187)scale(0.18 -0.18)">
       <use xlink:href="#DejaVuSans-53"/>
       <use x="63.623047" xlink:href="#DejaVuSans-48"/>
      </g>
     </g>
    </g>
    <g id="xtick_7">
     <g id="line2d_7">
      <g>
       <use style="stroke:#000000;stroke-width:0.8;" x="324" xlink:href="#me2c21bd639" y="504"/>
      </g>
     </g>
     <g id="text_7">
      <!-- 60 -->
      <defs>
       <path d="M 33.015625 40.375 
Q 26.375 40.375 22.484375 35.828125 
Q 18.609375 31.296875 18.609375 23.390625 
Q 18.609375 15.53125 22.484375 10.953125 
Q 26.375 6.390625 33.015625 6.390625 
Q 39.65625 6.390625 43.53125 10.953125 
Q 47.40625 15.53125 47.40625 23.390625 
Q 47.40625 31.296875 43.53125 35.828125 
Q 39.65625 40.375 33.015625 40.375 
z
M 52.59375 71.296875 
L 52.59375 62.3125 
Q 48.875 64.0625 45.09375 64.984375 
Q 41.3125 65.921875 37.59375 65.921875 
Q 27.828125 65.921875 22.671875 59.328125 
Q 17.53125 52.734375 16.796875 39.40625 
Q 19.671875 43.65625 24.015625 45.921875 
Q 28.375 48.1875 33.59375 48.1875 
Q 44.578125 48.1875 50.953125 41.515625 
Q 57.328125 34.859375 57.328125 23.390625 
Q 57.328125 12.15625 50.6875 5.359375 
Q 44.046875 -1.421875 33.015625 -1.421875 
Q 20.359375 -1.421875 13.671875 8.265625 
Q 6.984375 17.96875 6.984375 36.375 
Q 6.984375 53.65625 15.1875 63.9375 
Q 23.390625 74.21875 37.203125 74.21875 
Q 40.921875 74.21875 44.703125 73.484375 
Q 48.484375 72.75 52.59375 71.296875 
z
" id="DejaVuSans-54"/>
      </defs>
      <g transform="translate(312.5475 524.677187)scale(0.18 -0.18)">
       <use xlink:href="#DejaVuSans-54"/>
       <use x="63.623047" xlink:href="#DejaVuSans-48"/>
      </g>
     </g>
    </g>
    <g id="text_8">
     <!-- time (s) -->
     <defs>
      <path d="M 18.3125 70.21875 
L 18.3125 54.6875 
L 36.8125 54.6875 
L 36.8125 47.703125 
L 18.3125 47.703125 
L 18.3125 18.015625 
Q 18.3125 11.328125 20.140625 9.421875 
Q 21.96875 7.515625 27.59375 7.515625 
L 36.8125 7.515625 
L 36.8125 0 
L 27.59375 0 
Q 17.1875 0 13.234375 3.875 
Q 9.28125 7.765625 9.28125 18.015625 
L 9.28125 47.703125 
L 2.6875 47.703125 
L 2.6875 54.6875 
L 9.28125 54.6875 
L 9.28125 70.21875 
z
" id="DejaVuSans-116"/>
      <path d="M 9.421875 54.6875 
L 18.40625 54.6875 
L 18.40625 0 
L 9.421875 0 
z
M 9.421875 75.984375 
L 18.40625 75.984375 
L 18.40625 64.59375 
L 9.421875 64.59375 
z
" id="DejaVuSans-105"/>
      <path d="M 52 44.1875 
Q 55.375 50.25 60.0625 53.125 
Q 64.75 56 71.09375 56 
Q 79.640625 56 84.28125 50.015625 
Q 88.921875 44.046875 88.921875 33.015625 
L 88.921875 0 
L 79.890625 0 
L 79.890625 32.71875 
Q 79.890625 40.578125 77.09375 44.375 
Q 74.3125 48.1875 68.609375 48.1875 
Q 61.625 48.1875 57.5625 43.546875 
Q 53.515625 38.921875 53.515625 30.90625 
L 53.515625 0 
L 44.484375 0 
L 44.484375 32.71875 
Q 44.484375 40.625 41.703125 44.40625 
Q 38.921875 48.1875 33.109375 48.1875 
Q 26.21875 48.1875 22.15625 43.53125 
Q 18.109375 38.875 18.109375 30.90625 
L 18.109375 0 
L 9.078125 0 
L 9.078125 54.6875 
L 18.109375 54.6875 
L 18.109375 46.1875 
Q 21.1875 51.21875 25.484375 53.609375 
Q 29.78125 56 35.6875 56 
Q 41.65625 56 45.828125 52.96875 
Q 50 49.953125 52 44.1875 
z
" id="DejaVuSans-109"/>
      <path d="M 56.203125 29.59375 
L 56.203125 25.203125 
L 14.890625 25.203125 
Q 15.484375 15.921875 20.484375 11.0625 
Q 25.484375 6.203125 34.421875 6.203125 
Q 39.59375 6.203125 44.453125 7.46875 
Q 49.3125 8.734375 54.109375 11.28125 
L 54.109375 2.78125 
Q 49.265625 0.734375 44.1875 -0.34375 
Q 39.109375 -1.421875 33.890625 -1.421875 
Q 20.796875 -1.421875 13.15625 6.1875 
Q 5.515625 13.8125 5.515625 26.8125 
Q 5.515625 40.234375 12.765625 48.109375 
Q 20.015625 56 32.328125 56 
Q 43.359375 56 49.78125 48.890625 
Q 56.203125 41.796875 56.203125 29.59375 
z
M 47.21875 32.234375 
Q 47.125 39.59375 43.09375 43.984375 
Q 39.0625 48.390625 32.421875 48.390625 
Q 24.90625 48.390625 20.390625 44.140625 
Q 15.875 39.890625 15.1875 32.171875 
z
" id="DejaVuSans-101"/>
      <path id="DejaVuSans-32"/>
      <path d="M 31 75.875 
Q 24.46875 64.65625 21.28125 53.65625 
Q 18.109375 42.671875 18.109375 31.390625 
Q 18.109375 20.125 21.3125 9.0625 
Q 24.515625 -2 31 -13.1875 
L 23.1875 -13.1875 
Q 15.875 -1.703125 12.234375 9.375 
Q 8.59375 20.453125 8.59375 31.390625 
Q 8.59375 42.28125 12.203125 53.3125 
Q 15.828125 64.359375 23.1875 75.875 
z
" id="DejaVuSans-40"/>
      <path d="M 44.28125 53.078125 
L 44.28125 44.578125 
Q 40.484375 46.53125 36.375 47.5 
Q 32.28125 48.484375 27.875 48.484375 
Q 21.1875 48.484375 17.84375 46.4375 
Q 14.5 44.390625 14.5 40.28125 
Q 14.5 37.15625 16.890625 35.375 
Q 19.28125 33.59375 26.515625 31.984375 
L 29.59375 31.296875 
Q 39.15625 29.25 43.1875 25.515625 
Q 47.21875 21.78125 47.21875 15.09375 
Q 47.21875 7.46875 41.1875 3.015625 
Q 35.15625 -1.421875 24.609375 -1.421875 
Q 20.21875 -1.421875 15.453125 -0.5625 
Q 10.6875 0.296875 5.421875 2 
L 5.421875 11.28125 
Q 10.40625 8.6875 15.234375 7.390625 
Q 20.0625 6.109375 24.8125 6.109375 
Q 31.15625 6.109375 34.5625 8.28125 
Q 37.984375 10.453125 37.984375 14.40625 
Q 37.984375 18.0625 35.515625 20.015625 
Q 33.0625 21.96875 24.703125 23.78125 
L 21.578125 24.515625 
Q 13.234375 26.265625 9.515625 29.90625 
Q 5.8125 33.546875 5.8125 39.890625 
Q 5.8125 47.609375 11.28125 51.796875 
Q 16.75 56 26.8125 56 
Q 31.78125 56 36.171875 55.265625 
Q 40.578125 54.546875 44.28125 53.078125 
z
" id="DejaVuSans-115"/>
      <path d="M 8.015625 75.875 
L 15.828125 75.875 
Q 23.140625 64.359375 26.78125 53.3125 
Q 30.421875 42.28125 30.421875 31.390625 
Q 30.421875 20.453125 26.78125 9.375 
Q 23.140625 -1.703125 15.828125 -13.1875 
L 8.015625 -13.1875 
Q 14.5 -2 17.703125 9.0625 
Q 20.90625 20.125 20.90625 31.390625 
Q 20.90625 42.671875 17.703125 53.65625 
Q 14.5 64.65625 8.015625 75.875 
z
" id="DejaVuSans-41"/>
     </defs>
     <g transform="translate(137.960625 550.656875)scale(0.24 -0.24)">
      <use xlink:href="#DejaVuSans-116"/>
      <use x="39.208984" xlink:href="#DejaVuSans-105"/>
      <use x="66.992188" xlink:href="#DejaVuSans-109"/>
      <use x="164.404297" xlink:href="#DejaVuSans-101"/>
      <use x="225.927734" xlink:href="#DejaVuSans-32"/>
      <use x="257.714844" xlink:href="#DejaVuSans-40"/>
      <use x="296.728516" xlink:href="#DejaVuSans-115"/>
      <use x="348.828125" xlink:href="#DejaVuSans-41"/>
     </g>
    </g>
   </g>
   <g id="matplotlib.axis_2">
    <g id="ytick_1">
     <g id="line2d_8">
      <defs>
       <path d="M 0 0 
L -3.5 0 
" id="m89f633213b" style="stroke:#000000;stroke-width:0.8;"/>
      </defs>
      <g>
       <use style="stroke:#000000;stroke-width:0.8;" x="45" xlink:href="#m89f633213b" y="472.849703"/>
      </g>
     </g>
     <g id="text_9">
      <!-- 0.0 -->
      <defs>
       <path d="M 10.6875 12.40625 
L 21 12.40625 
L 21 0 
L 10.6875 0 
z
" id="DejaVuSans-46"/>
      </defs>
      <g transform="translate(9.374375 479.688296)scale(0.18 -0.18)">
       <use xlink:href="#DejaVuSans-48"/>
       <use x="63.623047" xlink:href="#DejaVuSans-46"/>
       <use x="95.410156" xlink:href="#DejaVuSans-48"/>
      </g>
     </g>
    </g>
    <g id="ytick_2">
     <g id="line2d_9">
      <g>
       <use style="stroke:#000000;stroke-width:0.8;" x="45" xlink:href="#m89f633213b" y="391.314935"/>
      </g>
     </g>
     <g id="text_10">
      <!-- 0.2 -->
      <g transform="translate(9.374375 398.153529)scale(0.18 -0.18)">
       <use xlink:href="#DejaVuSans-48"/>
       <use x="63.623047" xlink:href="#DejaVuSans-46"/>
       <use x="95.410156" xlink:href="#DejaVuSans-50"/>
      </g>
     </g>
    </g>
    <g id="ytick_3">
     <g id="line2d_10">
      <g>
       <use style="stroke:#000000;stroke-width:0.8;" x="45" xlink:href="#m89f633213b" y="309.780168"/>
      </g>
     </g>
     <g id="text_11">
      <!-- 0.4 -->
      <g transform="translate(9.374375 316.618761)scale(0.18 -0.18)">
       <use xlink:href="#DejaVuSans-48"/>
       <use x="63.623047" xlink:href="#DejaVuSans-46"/>
       <use x="95.410156" xlink:href="#DejaVuSans-52"/>
      </g>
     </g>
    </g>
    <g id="ytick_4">
     <g id="line2d_11">
      <g>
       <use style="stroke:#000000;stroke-width:0.8;" x="45" xlink:href="#m89f633213b" y="228.2454"/>
      </g>
     </g>
     <g id="text_12">
      <!-- 0.6 -->
      <g transform="translate(9.374375 235.083994)scale(0.18 -0.18)">
       <use xlink:href="#DejaVuSans-48"/>
       <use x="63.623047" xlink:href="#DejaVuSans-46"/>
       <use x="95.410156" xlink:href="#DejaVuSans-54"/>
      </g>
     </g>
    </g>
    <g id="ytick_5">
     <g id="line2d_12">
      <g>
       <use style="stroke:#000000;stroke-width:0.8;" x="45" xlink:href="#m89f633213b" y="146.710633"/>
      </g>
     </g>
     <g id="text_13">
      <!-- 0.8 -->
      <defs>
       <path d="M 31.78125 34.625 
Q 24.75 34.625 20.71875 30.859375 
Q 16.703125 27.09375 16.703125 20.515625 
Q 16.703125 13.921875 20.71875 10.15625 
Q 24.75 6.390625 31.78125 6.390625 
Q 38.8125 6.390625 42.859375 10.171875 
Q 46.921875 13.96875 46.921875 20.515625 
Q 46.921875 27.09375 42.890625 30.859375 
Q 38.875 34.625 31.78125 34.625 
z
M 21.921875 38.8125 
Q 15.578125 40.375 12.03125 44.71875 
Q 8.5 49.078125 8.5 55.328125 
Q 8.5 64.0625 14.71875 69.140625 
Q 20.953125 74.21875 31.78125 74.21875 
Q 42.671875 74.21875 48.875 69.140625 
Q 55.078125 64.0625 55.078125 55.328125 
Q 55.078125 49.078125 51.53125 44.71875 
Q 48 40.375 41.703125 38.8125 
Q 48.828125 37.15625 52.796875 32.3125 
Q 56.78125 27.484375 56.78125 20.515625 
Q 56.78125 9.90625 50.3125 4.234375 
Q 43.84375 -1.421875 31.78125 -1.421875 
Q 19.734375 -1.421875 13.25 4.234375 
Q 6.78125 9.90625 6.78125 20.515625 
Q 6.78125 27.484375 10.78125 32.3125 
Q 14.796875 37.15625 21.921875 38.8125 
z
M 18.3125 54.390625 
Q 18.3125 48.734375 21.84375 45.5625 
Q 25.390625 42.390625 31.78125 42.390625 
Q 38.140625 42.390625 41.71875 45.5625 
Q 45.3125 48.734375 45.3125 54.390625 
Q 45.3125 60.0625 41.71875 63.234375 
Q 38.140625 66.40625 31.78125 66.40625 
Q 25.390625 66.40625 21.84375 63.234375 
Q 18.3125 60.0625 18.3125 54.390625 
z
" id="DejaVuSans-56"/>
      </defs>
      <g transform="translate(9.374375 153.549227)scale(0.18 -0.18)">
       <use xlink:href="#DejaVuSans-48"/>
       <use x="63.623047" xlink:href="#DejaVuSans-46"/>
       <use x="95.410156" xlink:href="#DejaVuSans-56"/>
      </g>
     </g>
    </g>
    <g id="text_14">
     <!-- dF/F -->
     <defs>
      <path d="M 45.40625 46.390625 
L 45.40625 75.984375 
L 54.390625 75.984375 
L 54.390625 0 
L 45.40625 0 
L 45.40625 8.203125 
Q 42.578125 3.328125 38.25 0.953125 
Q 33.9375 -1.421875 27.875 -1.421875 
Q 17.96875 -1.421875 11.734375 6.484375 
Q 5.515625 14.40625 5.515625 27.296875 
Q 5.515625 40.1875 11.734375 48.09375 
Q 17.96875 56 27.875 56 
Q 33.9375 56 38.25 53.625 
Q 42.578125 51.265625 45.40625 46.390625 
z
M 14.796875 27.296875 
Q 14.796875 17.390625 18.875 11.75 
Q 22.953125 6.109375 30.078125 6.109375 
Q 37.203125 6.109375 41.296875 11.75 
Q 45.40625 17.390625 45.40625 27.296875 
Q 45.40625 37.203125 41.296875 42.84375 
Q 37.203125 48.484375 30.078125 48.484375 
Q 22.953125 48.484375 18.875 42.84375 
Q 14.796875 37.203125 14.796875 27.296875 
z
" id="DejaVuSans-100"/>
      <path d="M 9.8125 72.90625 
L 51.703125 72.90625 
L 51.703125 64.59375 
L 19.671875 64.59375 
L 19.671875 43.109375 
L 48.578125 43.109375 
L 48.578125 34.8125 
L 19.671875 34.8125 
L 19.671875 0 
L 9.8125 0 
z
" id="DejaVuSans-70"/>
      <path d="M 25.390625 72.90625 
L 33.6875 72.90625 
L 8.296875 -9.28125 
L 0 -9.28125 
z
" id="DejaVuSans-47"/>
     </defs>
     <g transform="translate(0.383125 312.024375)rotate(-90)scale(0.24 -0.24)">
      <use xlink:href="#DejaVuSans-100"/>
      <use x="63.476562" xlink:href="#DejaVuSans-70"/>
      <use x="120.996094" xlink:href="#DejaVuSans-47"/>
      <use x="154.6875" xlink:href="#DejaVuSans-70"/>
     </g>
    </g>
   </g>
   <g id="line2d_13">
    <path clip-path="url(#p9f5cf79d67)" d="M 45 480.420563 
L 49.3989 481.379892 
L 53.79315 478.66913 
L 58.19205 472.870424 
L 62.5863 450.908504 
L 66.9852 410.528666 
L 71.37945 360.74303 
L 75.77835 303.269534 
L 80.1726 261.374711 
L 84.5715 233.017168 
L 88.9704 206.711488 
L 93.36465 202.107387 
L 97.76355 204.636816 
L 102.1578 211.775965 
L 106.5567 220.472257 
L 110.95095 228.75388 
L 115.34985 237.718229 
L 119.74875 244.324899 
L 124.143 250.594269 
L 128.5419 256.146087 
L 132.93615 265.947044 
L 137.33505 268.234783 
L 141.7293 273.054627 
L 146.1282 280.650857 
L 150.52245 284.520933 
L 154.92135 290.786879 
L 159.32025 294.250222 
L 163.7145 299.639556 
L 168.1134 304.026326 
L 172.50765 311.269675 
L 176.90655 313.342128 
L 181.3008 316.680224 
L 185.6997 320.578578 
L 190.0986 323.354183 
L 194.49285 329.16841 
L 198.89175 330.883704 
L 203.286 337.956574 
L 207.6849 338.126713 
L 212.07915 340.172283 
L 216.47805 344.382467 
L 220.8723 347.193245 
L 225.2712 350.421309 
L 229.6701 354.119586 
L 234.06435 357.524021 
L 238.46325 360.33408 
L 242.8575 361.938535 
L 247.2564 364.53464 
L 251.65065 368.721946 
L 256.04955 369.422605 
L 260.44845 374.295446 
L 264.8427 374.835095 
L 269.2416 378.509545 
L 273.63585 383.114419 
L 278.03475 382.921055 
L 282.429 383.576345 
L 286.8279 386.585602 
L 291.22215 390.238901 
L 295.62105 391.074206 
L 300.01995 392.893132 
L 304.4142 396.300969 
L 308.8131 396.41079 
L 313.20735 399.693336 
L 317.60625 401.306942 
L 322.0005 404.724365 
L 326.3994 403.939808 
" style="fill:none;stroke:#1a991a;stroke-linecap:square;stroke-width:1.5;"/>
   </g>
   <g id="line2d_14">
    <path clip-path="url(#p9f5cf79d67)" d="M 45 472.828379 
L 49.3989 472.596907 
L 53.79315 472.445239 
L 58.19205 472.264044 
L 62.5863 474.113945 
L 66.9852 469.678584 
L 71.37945 469.405732 
L 75.77835 469.33241 
L 80.1726 469.816601 
L 84.5715 469.620987 
L 88.9704 469.421749 
L 93.36465 469.969258 
L 97.76355 469.957991 
L 102.1578 469.784542 
L 106.5567 469.90164 
L 110.95095 470.504393 
L 115.34985 470.091572 
L 119.74875 470.227039 
L 124.143 470.614265 
L 128.5419 470.661964 
L 132.93615 470.613731 
L 137.33505 470.090793 
L 141.7293 470.214637 
L 146.1282 470.11484 
L 150.52245 470.430639 
L 154.92135 470.434253 
L 159.32025 470.996254 
L 163.7145 470.41753 
L 168.1134 470.921481 
L 172.50765 470.811168 
L 176.90655 471.329659 
L 181.3008 471.025965 
L 185.6997 471.2805 
L 190.0986 471.233699 
L 194.49285 471.393052 
L 198.89175 471.181805 
L 203.286 470.921023 
L 207.6849 471.463223 
L 212.07915 471.135187 
L 216.47805 471.910261 
L 220.8723 471.33334 
L 225.2712 471.595717 
L 229.6701 471.284474 
L 234.06435 471.55101 
L 238.46325 471.678922 
L 242.8575 471.258553 
L 247.2564 471.604186 
L 251.65065 470.951998 
L 256.04955 471.449646 
L 260.44845 471.113048 
L 264.8427 471.154991 
L 269.2416 471.040311 
L 273.63585 471.877783 
L 278.03475 471.605859 
L 282.429 471.401302 
L 286.8279 471.54477 
L 291.22215 472.054691 
L 295.62105 471.730213 
L 300.01995 471.592449 
L 304.4142 471.884137 
L 308.8131 471.680665 
L 313.20735 471.717048 
L 317.60625 471.718214 
L 322.0005 471.83195 
L 326.3994 471.736796 
" style="fill:none;stroke:#cc66cc;stroke-linecap:square;stroke-width:1.5;"/>
   </g>
   <g id="line2d_15">
    <path clip-path="url(#p9f5cf79d67)" d="M 45 472.152102 
L 47.325 473.356721 
L 49.65 473.306046 
L 51.975 472.827133 
L 54.3 472.606512 
L 56.625 472.916307 
L 58.95 473.364887 
L 61.275 473.378256 
L 63.6 473.271839 
L 65.925 476.236862 
L 68.25 472.404079 
L 70.575 466.501527 
L 72.9 465.126429 
L 75.225 464.297296 
L 77.55 465.807865 
L 79.875 465.704657 
L 82.2 464.496218 
L 84.525 464.302222 
L 86.85 465.460198 
L 89.175 465.50748 
L 91.5 465.994263 
L 93.825 465.303931 
L 98.475 465.281871 
L 100.8 465.836214 
L 103.125 466.174556 
L 105.45 466.315881 
L 107.775 466.831105 
L 110.1 466.542957 
L 112.425 466.584598 
L 114.75 466.780671 
L 117.075 465.830623 
L 119.4 467.841649 
L 121.725 466.076355 
L 126.375 466.657528 
L 128.7 466.399066 
L 133.35 466.498793 
L 138 466.096643 
L 140.325 466.238992 
L 144.975 467.83852 
L 147.3 467.233408 
L 149.625 467.28913 
L 154.275 467.012241 
L 156.6 467.489888 
L 158.925 467.21516 
L 161.25 467.163559 
L 163.575 467.468372 
L 165.9 467.430326 
L 168.225 468.377231 
L 170.55 468.088294 
L 172.875 467.490491 
L 175.2 468.073336 
L 177.525 468.065979 
L 179.85 468.300934 
L 182.175 467.558147 
L 184.5 468.235187 
L 186.825 468.566287 
L 189.15 468.200379 
L 191.475 468.427878 
L 193.8 467.131005 
L 196.125 467.661637 
L 198.45 467.568367 
L 200.775 468.688933 
L 203.1 468.73171 
L 205.425 468.464458 
L 207.75 468.742118 
L 212.4 468.926172 
L 214.725 469.171007 
L 217.05 468.692494 
L 219.375 468.97599 
L 221.7 468.878147 
L 224.025 469.285844 
L 226.35 468.918223 
L 228.675 468.84707 
L 231 469.702768 
L 233.325 470.152432 
L 235.65 469.375506 
L 237.975 469.60834 
L 240.3 469.255665 
L 244.95 470.583098 
L 247.275 469.959553 
L 249.6 470.457468 
L 251.925 470.632771 
L 254.25 470.414256 
L 256.575 471.434041 
L 258.9 471.325448 
L 261.225 470.652733 
L 263.55 470.57535 
L 265.875 471.130314 
L 268.2 470.472664 
L 270.525 470.983164 
L 272.85 471.244307 
L 275.175 471.757869 
L 277.5 470.869353 
L 279.825 471.17033 
L 282.15 471.267696 
L 284.475 470.821419 
L 286.8 471.19416 
L 289.125 472.010214 
L 291.45 470.990881 
L 293.775 471.67816 
L 296.1 470.531799 
L 298.425 471.35533 
L 303.075 471.85902 
L 305.4 472.453313 
L 307.725 472.389778 
L 310.05 472.138213 
L 312.375 471.678518 
L 314.7 471.7936 
L 317.025 472.393517 
L 319.35 472.109269 
L 321.675 472.318869 
L 324 471.7668 
L 326.325 472.481691 
L 328.65 472.120657 
L 330.975 471.400932 
L 333.3 471.845199 
L 335.625 472.151442 
L 337.95 471.322776 
L 340.275 472.630985 
L 342.6 471.959097 
L 344.925 472.502642 
L 344.925 472.502642 
" style="fill:none;stroke:#6666ff;stroke-linecap:square;stroke-width:1.5;"/>
   </g>
   <g id="line2d_16">
    <path clip-path="url(#p9f5cf79d67)" d="M 62.5863 504 
L 62.5863 69.12 
" style="fill:none;stroke:#ff0000;stroke-linecap:square;stroke-width:2;"/>
   </g>
   <g id="patch_3">
    <path d="M 45 504 
L 45 69.12 
" style="fill:none;stroke:#000000;stroke-linecap:square;stroke-linejoin:miter;stroke-width:0.8;"/>
   </g>
   <g id="patch_4">
    <path d="M 324 504 
L 324 69.12 
" style="fill:none;stroke:#000000;stroke-linecap:square;stroke-linejoin:miter;stroke-width:0.8;"/>
   </g>
   <g id="patch_5">
    <path d="M 45 504 
L 324 504 
" style="fill:none;stroke:#000000;stroke-linecap:square;stroke-linejoin:miter;stroke-width:0.8;"/>
   </g>
   <g id="patch_6">
    <path d="M 45 69.12 
L 324 69.12 
" style="fill:none;stroke:#000000;stroke-linecap:square;stroke-linejoin:miter;stroke-width:0.8;"/>
   </g>
   <g id="legend_1">
    <g id="patch_7">
     <path d="M 226.464375 131.56125 
L 315.6 131.56125 
Q 318 131.56125 318 129.16125 
L 318 77.52 
Q 318 75.12 315.6 75.12 
L 226.464375 75.12 
Q 224.064375 75.12 224.064375 77.52 
L 224.064375 129.16125 
Q 224.064375 131.56125 226.464375 131.56125 
z
" style="fill:#ffffff;opacity:0.8;stroke:#cccccc;stroke-linejoin:miter;"/>
    </g>
    <g id="line2d_17">
     <path d="M 228.864375 84.838125 
L 252.864375 84.838125 
" style="fill:none;stroke:#1a991a;stroke-linecap:square;stroke-width:1.5;"/>
    </g>
    <g id="line2d_18"/>
    <g id="text_15">
     <!-- control -->
     <defs>
      <path d="M 48.78125 52.59375 
L 48.78125 44.1875 
Q 44.96875 46.296875 41.140625 47.34375 
Q 37.3125 48.390625 33.40625 48.390625 
Q 24.65625 48.390625 19.8125 42.84375 
Q 14.984375 37.3125 14.984375 27.296875 
Q 14.984375 17.28125 19.8125 11.734375 
Q 24.65625 6.203125 33.40625 6.203125 
Q 37.3125 6.203125 41.140625 7.25 
Q 44.96875 8.296875 48.78125 10.40625 
L 48.78125 2.09375 
Q 45.015625 0.34375 40.984375 -0.53125 
Q 36.96875 -1.421875 32.421875 -1.421875 
Q 20.0625 -1.421875 12.78125 6.34375 
Q 5.515625 14.109375 5.515625 27.296875 
Q 5.515625 40.671875 12.859375 48.328125 
Q 20.21875 56 33.015625 56 
Q 37.15625 56 41.109375 55.140625 
Q 45.0625 54.296875 48.78125 52.59375 
z
" id="DejaVuSans-99"/>
      <path d="M 30.609375 48.390625 
Q 23.390625 48.390625 19.1875 42.75 
Q 14.984375 37.109375 14.984375 27.296875 
Q 14.984375 17.484375 19.15625 11.84375 
Q 23.34375 6.203125 30.609375 6.203125 
Q 37.796875 6.203125 41.984375 11.859375 
Q 46.1875 17.53125 46.1875 27.296875 
Q 46.1875 37.015625 41.984375 42.703125 
Q 37.796875 48.390625 30.609375 48.390625 
z
M 30.609375 56 
Q 42.328125 56 49.015625 48.375 
Q 55.71875 40.765625 55.71875 27.296875 
Q 55.71875 13.875 49.015625 6.21875 
Q 42.328125 -1.421875 30.609375 -1.421875 
Q 18.84375 -1.421875 12.171875 6.21875 
Q 5.515625 13.875 5.515625 27.296875 
Q 5.515625 40.765625 12.171875 48.375 
Q 18.84375 56 30.609375 56 
z
" id="DejaVuSans-111"/>
      <path d="M 54.890625 33.015625 
L 54.890625 0 
L 45.90625 0 
L 45.90625 32.71875 
Q 45.90625 40.484375 42.875 44.328125 
Q 39.84375 48.1875 33.796875 48.1875 
Q 26.515625 48.1875 22.3125 43.546875 
Q 18.109375 38.921875 18.109375 30.90625 
L 18.109375 0 
L 9.078125 0 
L 9.078125 54.6875 
L 18.109375 54.6875 
L 18.109375 46.1875 
Q 21.34375 51.125 25.703125 53.5625 
Q 30.078125 56 35.796875 56 
Q 45.21875 56 50.046875 50.171875 
Q 54.890625 44.34375 54.890625 33.015625 
z
" id="DejaVuSans-110"/>
      <path d="M 41.109375 46.296875 
Q 39.59375 47.171875 37.8125 47.578125 
Q 36.03125 48 33.890625 48 
Q 26.265625 48 22.1875 43.046875 
Q 18.109375 38.09375 18.109375 28.8125 
L 18.109375 0 
L 9.078125 0 
L 9.078125 54.6875 
L 18.109375 54.6875 
L 18.109375 46.1875 
Q 20.953125 51.171875 25.484375 53.578125 
Q 30.03125 56 36.53125 56 
Q 37.453125 56 38.578125 55.875 
Q 39.703125 55.765625 41.0625 55.515625 
z
" id="DejaVuSans-114"/>
      <path d="M 9.421875 75.984375 
L 18.40625 75.984375 
L 18.40625 0 
L 9.421875 0 
z
" id="DejaVuSans-108"/>
     </defs>
     <g transform="translate(262.464375 89.038125)scale(0.12 -0.12)">
      <use xlink:href="#DejaVuSans-99"/>
      <use x="54.980469" xlink:href="#DejaVuSans-111"/>
      <use x="116.162109" xlink:href="#DejaVuSans-110"/>
      <use x="179.541016" xlink:href="#DejaVuSans-116"/>
      <use x="218.75" xlink:href="#DejaVuSans-114"/>
      <use x="259.832031" xlink:href="#DejaVuSans-111"/>
      <use x="321.013672" xlink:href="#DejaVuSans-108"/>
     </g>
    </g>
    <g id="line2d_19">
     <path d="M 228.864375 102.451875 
L 252.864375 102.451875 
" style="fill:none;stroke:#cc66cc;stroke-linecap:square;stroke-width:1.5;"/>
    </g>
    <g id="line2d_20"/>
    <g id="text_16">
     <!-- prasozin -->
     <defs>
      <path d="M 18.109375 8.203125 
L 18.109375 -20.796875 
L 9.078125 -20.796875 
L 9.078125 54.6875 
L 18.109375 54.6875 
L 18.109375 46.390625 
Q 20.953125 51.265625 25.265625 53.625 
Q 29.59375 56 35.59375 56 
Q 45.5625 56 51.78125 48.09375 
Q 58.015625 40.1875 58.015625 27.296875 
Q 58.015625 14.40625 51.78125 6.484375 
Q 45.5625 -1.421875 35.59375 -1.421875 
Q 29.59375 -1.421875 25.265625 0.953125 
Q 20.953125 3.328125 18.109375 8.203125 
z
M 48.6875 27.296875 
Q 48.6875 37.203125 44.609375 42.84375 
Q 40.53125 48.484375 33.40625 48.484375 
Q 26.265625 48.484375 22.1875 42.84375 
Q 18.109375 37.203125 18.109375 27.296875 
Q 18.109375 17.390625 22.1875 11.75 
Q 26.265625 6.109375 33.40625 6.109375 
Q 40.53125 6.109375 44.609375 11.75 
Q 48.6875 17.390625 48.6875 27.296875 
z
" id="DejaVuSans-112"/>
      <path d="M 34.28125 27.484375 
Q 23.390625 27.484375 19.1875 25 
Q 14.984375 22.515625 14.984375 16.5 
Q 14.984375 11.71875 18.140625 8.90625 
Q 21.296875 6.109375 26.703125 6.109375 
Q 34.1875 6.109375 38.703125 11.40625 
Q 43.21875 16.703125 43.21875 25.484375 
L 43.21875 27.484375 
z
M 52.203125 31.203125 
L 52.203125 0 
L 43.21875 0 
L 43.21875 8.296875 
Q 40.140625 3.328125 35.546875 0.953125 
Q 30.953125 -1.421875 24.3125 -1.421875 
Q 15.921875 -1.421875 10.953125 3.296875 
Q 6 8.015625 6 15.921875 
Q 6 25.140625 12.171875 29.828125 
Q 18.359375 34.515625 30.609375 34.515625 
L 43.21875 34.515625 
L 43.21875 35.40625 
Q 43.21875 41.609375 39.140625 45 
Q 35.0625 48.390625 27.6875 48.390625 
Q 23 48.390625 18.546875 47.265625 
Q 14.109375 46.140625 10.015625 43.890625 
L 10.015625 52.203125 
Q 14.9375 54.109375 19.578125 55.046875 
Q 24.21875 56 28.609375 56 
Q 40.484375 56 46.34375 49.84375 
Q 52.203125 43.703125 52.203125 31.203125 
z
" id="DejaVuSans-97"/>
      <path d="M 5.515625 54.6875 
L 48.1875 54.6875 
L 48.1875 46.484375 
L 14.40625 7.171875 
L 48.1875 7.171875 
L 48.1875 0 
L 4.296875 0 
L 4.296875 8.203125 
L 38.09375 47.515625 
L 5.515625 47.515625 
z
" id="DejaVuSans-122"/>
     </defs>
     <g transform="translate(262.464375 106.651875)scale(0.12 -0.12)">
      <use xlink:href="#DejaVuSans-112"/>
      <use x="63.476562" xlink:href="#DejaVuSans-114"/>
      <use x="104.589844" xlink:href="#DejaVuSans-97"/>
      <use x="165.869141" xlink:href="#DejaVuSans-115"/>
      <use x="217.96875" xlink:href="#DejaVuSans-111"/>
      <use x="279.150391" xlink:href="#DejaVuSans-122"/>
      <use x="331.640625" xlink:href="#DejaVuSans-105"/>
      <use x="359.423828" xlink:href="#DejaVuSans-110"/>
     </g>
    </g>
    <g id="line2d_21">
     <path d="M 228.864375 120.065625 
L 252.864375 120.065625 
" style="fill:none;stroke:#6666ff;stroke-linecap:square;stroke-width:1.5;"/>
    </g>
    <g id="line2d_22"/>
    <g id="text_17">
     <!-- hPMCA2 -->
     <defs>
      <path d="M 54.890625 33.015625 
L 54.890625 0 
L 45.90625 0 
L 45.90625 32.71875 
Q 45.90625 40.484375 42.875 44.328125 
Q 39.84375 48.1875 33.796875 48.1875 
Q 26.515625 48.1875 22.3125 43.546875 
Q 18.109375 38.921875 18.109375 30.90625 
L 18.109375 0 
L 9.078125 0 
L 9.078125 75.984375 
L 18.109375 75.984375 
L 18.109375 46.1875 
Q 21.34375 51.125 25.703125 53.5625 
Q 30.078125 56 35.796875 56 
Q 45.21875 56 50.046875 50.171875 
Q 54.890625 44.34375 54.890625 33.015625 
z
" id="DejaVuSans-104"/>
      <path d="M 19.671875 64.796875 
L 19.671875 37.40625 
L 32.078125 37.40625 
Q 38.96875 37.40625 42.71875 40.96875 
Q 46.484375 44.53125 46.484375 51.125 
Q 46.484375 57.671875 42.71875 61.234375 
Q 38.96875 64.796875 32.078125 64.796875 
z
M 9.8125 72.90625 
L 32.078125 72.90625 
Q 44.34375 72.90625 50.609375 67.359375 
Q 56.890625 61.8125 56.890625 51.125 
Q 56.890625 40.328125 50.609375 34.8125 
Q 44.34375 29.296875 32.078125 29.296875 
L 19.671875 29.296875 
L 19.671875 0 
L 9.8125 0 
z
" id="DejaVuSans-80"/>
      <path d="M 9.8125 72.90625 
L 24.515625 72.90625 
L 43.109375 23.296875 
L 61.8125 72.90625 
L 76.515625 72.90625 
L 76.515625 0 
L 66.890625 0 
L 66.890625 64.015625 
L 48.09375 14.015625 
L 38.1875 14.015625 
L 19.390625 64.015625 
L 19.390625 0 
L 9.8125 0 
z
" id="DejaVuSans-77"/>
      <path d="M 64.40625 67.28125 
L 64.40625 56.890625 
Q 59.421875 61.53125 53.78125 63.8125 
Q 48.140625 66.109375 41.796875 66.109375 
Q 29.296875 66.109375 22.65625 58.46875 
Q 16.015625 50.828125 16.015625 36.375 
Q 16.015625 21.96875 22.65625 14.328125 
Q 29.296875 6.6875 41.796875 6.6875 
Q 48.140625 6.6875 53.78125 8.984375 
Q 59.421875 11.28125 64.40625 15.921875 
L 64.40625 5.609375 
Q 59.234375 2.09375 53.4375 0.328125 
Q 47.65625 -1.421875 41.21875 -1.421875 
Q 24.65625 -1.421875 15.125 8.703125 
Q 5.609375 18.84375 5.609375 36.375 
Q 5.609375 53.953125 15.125 64.078125 
Q 24.65625 74.21875 41.21875 74.21875 
Q 47.75 74.21875 53.53125 72.484375 
Q 59.328125 70.75 64.40625 67.28125 
z
" id="DejaVuSans-67"/>
      <path d="M 34.1875 63.1875 
L 20.796875 26.90625 
L 47.609375 26.90625 
z
M 28.609375 72.90625 
L 39.796875 72.90625 
L 67.578125 0 
L 57.328125 0 
L 50.6875 18.703125 
L 17.828125 18.703125 
L 11.1875 0 
L 0.78125 0 
z
" id="DejaVuSans-65"/>
     </defs>
     <g transform="translate(262.464375 124.265625)scale(0.12 -0.12)">
      <use xlink:href="#DejaVuSans-104"/>
      <use x="63.378906" xlink:href="#DejaVuSans-80"/>
      <use x="123.681641" xlink:href="#DejaVuSans-77"/>
      <use x="209.960938" xlink:href="#DejaVuSans-67"/>
      <use x="279.785156" xlink:href="#DejaVuSans-65"/>
      <use x="348.193359" xlink:href="#DejaVuSans-50"/>
     </g>
    </g>
   </g>
  </g>
 </g>
 <defs>
  <clipPath id="p9f5cf79d67">
   <rect height="434.88" width="279" x="45" y="69.12"/>
  </clipPath>
 </defs>
</svg>
